<?xml version="1.0" encoding="UTF-8" standalone="no"?>
<!-- Created with Inkscape (http://www.inkscape.org/) -->

<svg
   xmlns:dc="http://purl.org/dc/elements/1.1/"
   xmlns:cc="http://creativecommons.org/ns#"
   xmlns:rdf="http://www.w3.org/1999/02/22-rdf-syntax-ns#"
   xmlns:svg="http://www.w3.org/2000/svg"
   xmlns="http://www.w3.org/2000/svg"
   xmlns:sodipodi="http://sodipodi.sourceforge.net/DTD/sodipodi-0.dtd"
   xmlns:inkscape="http://www.inkscape.org/namespaces/inkscape"
   width="270.07144"
   height="270.07144"
   id="svg2"
   version="1.1"
   inkscape:version="0.48.5 r10040"
   sodipodi:docname="Documento nuevo 1">
  <defs
     id="defs4" />
  <sodipodi:namedview
     id="base"
     pagecolor="#ffffff"
     bordercolor="#666666"
     borderopacity="1.0"
     inkscape:pageopacity="0.0"
     inkscape:pageshadow="2"
     inkscape:zoom="1.979899"
     inkscape:cx="125.40713"
     inkscape:cy="101.56023"
     inkscape:document-units="px"
     inkscape:current-layer="layer1"
     showgrid="false"
     fit-margin-top="0"
     fit-margin-left="0"
     fit-margin-right="0"
     fit-margin-bottom="0"
     inkscape:window-width="1920"
     inkscape:window-height="1007"
     inkscape:window-x="0"
     inkscape:window-y="25"
     inkscape:window-maximized="1" />
  <metadata
     id="metadata7">
    <rdf:RDF>
      <cc:Work
         rdf:about="">
        <dc:format>image/svg+xml</dc:format>
        <dc:type
           rdf:resource="http://purl.org/dc/dcmitype/StillImage" />
        <dc:title></dc:title>
      </cc:Work>
    </rdf:RDF>
  </metadata>
  <g
     inkscape:label="Capa 1"
     inkscape:groupmode="layer"
     id="layer1"
     transform="translate(-137.92857,-220.07646)">
    <path
       sodipodi:type="arc"
       style="fill:#ff0000;fill-opacity:1;stroke:#000000;stroke-width:1;stroke-linejoin:miter;stroke-miterlimit:4;stroke-opacity:1;stroke-dasharray:none;stroke-dashoffset:0"
       id="path2987"
       sodipodi:cx="338.57144"
       sodipodi:cy="319.50504"
       sodipodi:rx="21.428572"
       sodipodi:ry="21.428572"
       d="m 360.00001,319.50504 c 0,11.83467 -9.59389,21.42857 -21.42857,21.42857 -11.83467,0 -21.42857,-9.5939 -21.42857,-21.42857 0,-11.83468 9.5939,-21.42858 21.42857,-21.42858 11.83468,0 21.42857,9.5939 21.42857,21.42858"
       transform="translate(-65.714286,-77.5)" />
    <path
       sodipodi:type="arc"
       style="fill:#ffff00;fill-opacity:1;stroke:#000000;stroke-width:1;stroke-linejoin:miter;stroke-miterlimit:4;stroke-opacity:1;stroke-dasharray:none;stroke-dashoffset:0"
       id="path2987-3"
       sodipodi:cx="338.57144"
       sodipodi:cy="319.50504"
       sodipodi:rx="21.428572"
       sodipodi:ry="21.428572"
       d="m 360.00001,319.50504 c 0,11.83467 -9.59389,21.42857 -21.42857,21.42857 -11.83467,0 -21.42857,-9.5939 -21.42857,-21.42857 0,-11.83468 9.5939,-21.42858 21.42857,-21.42858 11.83468,0 21.42857,9.5939 21.42857,21.42858 z"
       transform="matrix(0,-1,1,0,-46.4336,806.79078)" />
    <path
       sodipodi:type="arc"
       style="fill:#0002ff;fill-opacity:1;stroke:#000000;stroke-width:1;stroke-linejoin:miter;stroke-miterlimit:4;stroke-opacity:1;stroke-dasharray:none;stroke-dashoffset:0"
       id="path2987-0"
       sodipodi:cx="338.57144"
       sodipodi:cy="319.50504"
       sodipodi:rx="21.428572"
       sodipodi:ry="21.428572"
       d="m 360.00001,319.50504 c 0,11.83467 -9.59389,21.42857 -21.42857,21.42857 -11.83467,0 -21.42857,-9.5939 -21.42857,-21.42857 0,-11.83468 9.5939,-21.42858 21.42857,-21.42858 11.83468,0 21.42857,9.5939 21.42857,21.42858 z"
       transform="matrix(-1,0,0,-1,724.64289,674.51008)" />
    <path
       sodipodi:type="arc"
       style="fill:#00ff00;fill-opacity:1;stroke:#000000;stroke-width:1;stroke-linejoin:miter;stroke-miterlimit:4;stroke-opacity:1;stroke-dasharray:none;stroke-dashoffset:0"
       id="path2987-3-0"
       sodipodi:cx="338.57144"
       sodipodi:cy="319.50504"
       sodipodi:rx="21.428572"
       sodipodi:ry="21.428572"
       d="m 360.00001,319.50504 c 0,11.83467 -9.59389,21.42857 -21.42857,21.42857 -11.83467,0 -21.42857,-9.5939 -21.42857,-21.42857 0,-11.83468 9.5939,-21.42858 21.42857,-21.42858 11.83468,0 21.42857,9.5939 21.42857,21.42858 z"
       transform="matrix(0,1,-1,0,479.36218,16.647884)" />
  </g>
</svg>
