<?xml version="1.0" encoding="UTF-8" standalone="no"?>
<!-- Created with Inkscape (http://www.inkscape.org/) -->

<svg
   xmlns:dc="http://purl.org/dc/elements/1.1/"
   xmlns:cc="http://creativecommons.org/ns#"
   xmlns:rdf="http://www.w3.org/1999/02/22-rdf-syntax-ns#"
   xmlns:svg="http://www.w3.org/2000/svg"
   xmlns="http://www.w3.org/2000/svg"
   xmlns:sodipodi="http://sodipodi.sourceforge.net/DTD/sodipodi-0.dtd"
   xmlns:inkscape="http://www.inkscape.org/namespaces/inkscape"
   id="svg2"
   version="1.1"
   inkscape:version="0.48.5 r10040"
   width="496.93674"
   height="157.96375"
   xml:space="preserve"
   sodipodi:docname="unc1_c.ai"><metadata
     id="metadata8"><rdf:RDF><cc:Work
         rdf:about=""><dc:format>image/svg+xml</dc:format><dc:type
           rdf:resource="http://purl.org/dc/dcmitype/StillImage" /><dc:title></dc:title></cc:Work></rdf:RDF></metadata><defs
     id="defs6"><clipPath
       clipPathUnits="userSpaceOnUse"
       id="clipPath18"><path
         d="m 0,841.89 595.276,0 L 595.276,0 0,0 0,841.89 z"
         id="path20"
         inkscape:connector-curvature="0" /></clipPath></defs><sodipodi:namedview
     pagecolor="#ffffff"
     bordercolor="#666666"
     borderopacity="1"
     objecttolerance="10"
     gridtolerance="10"
     guidetolerance="10"
     inkscape:pageopacity="0"
     inkscape:pageshadow="2"
     inkscape:window-width="1920"
     inkscape:window-height="1007"
     id="namedview4"
     showgrid="false"
     fit-margin-top="0"
     fit-margin-left="0"
     fit-margin-right="0"
     fit-margin-bottom="0"
     inkscape:zoom="2.5371819"
     inkscape:cx="210.0852"
     inkscape:cy="62.232854"
     inkscape:window-x="0"
     inkscape:window-y="25"
     inkscape:window-maximized="1"
     inkscape:current-layer="g10" /><g
     id="g10"
     inkscape:groupmode="layer"
     inkscape:label="unc1_c"
     transform="matrix(1.25,0,0,-1.25,-140.96,645.235)"><path
       d="m 238.08,391.917 -123.209,0 0,122.162 123.209,0 0,-122.162 z m -125.312,-2.1 252.731,0 0,126.371 -252.731,0 0,-126.371 z"
       style="fill:#1a1a1a;fill-opacity:1;fill-rule:nonzero;stroke:none"
       id="path12"
       inkscape:connector-curvature="0" /><g
       id="g14"><g
         id="g16"
         clip-path="url(#clipPath18)"><g
           id="g22"
           transform="translate(465.5898,392.9639)"><path
             d="m 0,0 c -0.634,-0.846 -1.443,-1.266 -2.423,-1.266 -1.266,0 -2.185,0.451 -2.764,1.37 -0.572,0.914 -0.858,2.045 -0.858,3.409 0,1.589 0.332,2.8 0.998,3.616 0.661,0.821 1.528,1.235 2.6,1.235 0.962,0 1.765,-0.389 2.416,-1.156 C 0.62,6.44 0.946,5.254 0.946,3.652 0.946,2.07 0.633,0.853 0,0 m 0.87,8.364 c -0.474,0.591 -0.907,1.011 -1.284,1.248 -0.651,0.414 -1.464,0.615 -2.429,0.615 -1.75,0 -3.093,-0.676 -4.036,-2.034 -0.943,-1.35 -1.412,-2.958 -1.412,-4.802 0,-1.972 0.518,-3.549 1.553,-4.742 1.028,-1.193 2.252,-1.784 3.658,-1.784 0.876,0 1.652,0.177 2.328,0.524 0.679,0.341 1.269,0.914 1.762,1.692 l 0,-1.777 1.908,0 0,17.476 -2.048,0 0,-6.416 z M 13.973,0.287 C 13.452,-0.778 12.496,-1.314 11.097,-1.314 9.83,-1.314 8.899,-0.87 8.314,0.037 7.73,0.938 7.438,2.058 7.438,3.403 c 0,1.412 0.292,2.612 0.876,3.604 0.585,0.992 1.522,1.491 2.813,1.491 1.445,0 2.465,-0.584 3.061,-1.753 0.372,-0.743 0.561,-1.704 0.561,-2.886 0,-1.314 -0.262,-2.502 -0.776,-3.572 m -2.797,10.08 C 9.367,10.367 7.925,9.733 6.851,8.468 5.776,7.208 5.24,5.51 5.24,3.373 c 0,-1.984 0.506,-3.573 1.529,-4.754 1.019,-1.175 2.395,-1.765 4.127,-1.765 2.082,0 3.609,0.663 4.601,2.002 0.989,1.333 1.482,3.019 1.482,5.065 0,2.112 -0.563,3.719 -1.682,4.808 -1.123,1.09 -2.493,1.638 -4.121,1.638 M 40.957,2.033 c 0,-1.308 -0.594,-2.252 -1.774,-2.824 -0.701,-0.347 -1.425,-0.523 -2.18,-0.523 -0.611,0 -1.145,0.176 -1.595,0.529 -0.447,0.359 -0.67,0.847 -0.67,1.455 0,0.816 0.326,1.406 0.987,1.777 0.386,0.22 0.967,0.378 1.735,0.482 l 1.29,0.158 c 0.39,0.049 0.791,0.128 1.202,0.237 0.411,0.115 0.743,0.256 1.005,0.426 l 0,-1.717 z m 2.849,-3.287 c -0.292,0 -0.488,0.067 -0.573,0.201 -0.094,0.134 -0.136,0.311 -0.136,0.53 l 0,7.317 c 0,1.199 -0.463,2.088 -1.386,2.653 -0.934,0.567 -2.143,0.859 -3.627,0.859 -1.288,0 -2.417,-0.31 -3.395,-0.925 C 33.716,8.766 33.214,7.677 33.174,6.105 l 1.991,0 c 0.073,0.659 0.243,1.158 0.502,1.486 0.466,0.602 1.251,0.907 2.361,0.907 0.959,0 1.699,-0.164 2.216,-0.493 0.515,-0.328 0.774,-0.859 0.774,-1.589 0,-0.358 -0.049,-0.633 -0.144,-0.821 C 40.707,5.248 40.382,5.041 39.892,4.979 L 36.495,4.554 C 35.305,4.407 34.34,4.006 33.606,3.354 32.87,2.709 32.511,1.796 32.511,0.621 c 0,-1.077 0.368,-1.972 1.114,-2.684 0.745,-0.712 1.704,-1.072 2.879,-1.072 0.98,0 1.875,0.207 2.69,0.627 0.81,0.427 1.431,0.92 1.869,1.492 0.073,-0.505 0.195,-0.895 0.366,-1.169 0.331,-0.523 0.867,-0.785 1.6,-0.785 0.305,0 0.542,0.012 0.712,0.036 0.177,0.025 0.433,0.085 0.768,0.177 l 0,1.57 C 44.368,-1.205 44.247,-1.223 44.125,-1.235 44.003,-1.254 43.899,-1.254 43.806,-1.254 M 27.568,0.152 c -0.572,-0.913 -1.436,-1.375 -2.593,-1.375 -1.537,0 -2.587,0.7 -3.147,2.1 -0.305,0.743 -0.45,1.711 -0.45,2.91 0,1.65 0.365,2.836 1.095,3.555 0.734,0.718 1.589,1.083 2.56,1.083 1.116,0 1.963,-0.445 2.535,-1.321 0.576,-0.876 0.859,-1.984 0.859,-3.317 0,-1.51 -0.283,-2.715 -0.859,-3.635 m -2.28,10.184 c -0.758,0 -1.464,-0.158 -2.115,-0.481 -0.652,-0.322 -1.208,-0.785 -1.677,-1.4 l 0,6.325 -2.078,0 0,-17.476 1.972,0 0,1.613 c 0.45,-0.608 0.877,-1.047 1.272,-1.321 0.663,-0.469 1.485,-0.7 2.453,-0.7 1.723,0 3.074,0.664 4.054,1.991 0.974,1.333 1.458,3.001 1.458,5.009 0,2.119 -0.493,3.719 -1.48,4.809 -0.982,1.084 -2.273,1.631 -3.859,1.631 m -90.42,-5.66 c 0.039,1.083 0.39,1.977 1.047,2.678 0.657,0.706 1.473,1.053 2.443,1.053 1.355,0 2.323,-0.511 2.901,-1.528 0.317,-0.554 0.517,-1.284 0.599,-2.203 l -6.99,0 z m 9.003,1.095 c -0.141,0.858 -0.424,1.601 -0.847,2.234 -0.441,0.67 -1.083,1.218 -1.923,1.638 -0.843,0.42 -1.707,0.632 -2.605,0.632 -1.774,0 -3.215,-0.638 -4.31,-1.911 -1.108,-1.266 -1.656,-2.922 -1.656,-4.955 0,-2.069 0.548,-3.677 1.638,-4.821 1.093,-1.151 2.423,-1.723 3.999,-1.723 0.639,0 1.218,0.062 1.729,0.19 0.95,0.218 1.741,0.644 2.386,1.278 0.39,0.365 0.734,0.827 1.044,1.399 0.314,0.573 0.496,1.096 0.551,1.559 l -2.094,0 c -0.152,-0.561 -0.418,-1.06 -0.786,-1.479 -0.66,-0.743 -1.543,-1.114 -2.647,-1.114 -1.181,0 -2.058,0.39 -2.623,1.168 -0.567,0.786 -0.866,1.821 -0.908,3.112 l 9.241,0 c 0,1.284 -0.062,2.215 -0.189,2.793 M -72.845,0 c -0.633,-0.846 -1.439,-1.266 -2.423,-1.266 -1.265,0 -2.184,0.451 -2.759,1.37 -0.573,0.914 -0.862,2.045 -0.862,3.409 0,1.589 0.334,2.8 0.998,3.616 0.663,0.821 1.535,1.235 2.599,1.235 0.959,0 1.766,-0.389 2.417,-1.156 0.651,-0.768 0.98,-1.954 0.98,-3.556 0,-1.582 -0.314,-2.799 -0.95,-3.652 m 0.874,8.364 c -0.484,0.591 -0.91,1.011 -1.288,1.248 -0.654,0.414 -1.461,0.615 -2.431,0.615 -1.745,0 -3.092,-0.676 -4.033,-2.034 -0.937,-1.35 -1.409,-2.958 -1.409,-4.802 0,-1.972 0.514,-3.549 1.546,-4.742 1.031,-1.193 2.255,-1.784 3.664,-1.784 0.874,0 1.647,0.177 2.328,0.524 0.676,0.341 1.261,0.914 1.76,1.692 l 0,-1.777 1.911,0 0,17.476 -2.048,0 0,-6.416 z m 50.867,-8.077 c -0.518,-1.065 -1.473,-1.601 -2.874,-1.601 -1.272,0 -2.2,0.444 -2.785,1.351 -0.581,0.901 -0.876,2.021 -0.876,3.366 0,1.412 0.295,2.612 0.876,3.604 0.585,0.992 1.52,1.491 2.81,1.491 1.449,0 2.472,-0.584 3.064,-1.753 0.372,-0.743 0.564,-1.704 0.564,-2.886 0,-1.314 -0.262,-2.502 -0.779,-3.572 m -2.794,10.08 c -1.808,0 -3.254,-0.634 -4.329,-1.899 -1.077,-1.26 -1.609,-2.958 -1.609,-5.095 0,-1.984 0.508,-3.573 1.524,-4.754 1.023,-1.175 2.399,-1.765 4.133,-1.765 2.076,0 3.611,0.663 4.6,2.002 0.989,1.333 1.481,3.019 1.481,5.065 0,2.112 -0.559,3.719 -1.682,4.808 -1.123,1.09 -2.493,1.638 -4.118,1.638 m 13.985,-0.092 c -0.85,0 -1.598,-0.31 -2.246,-0.919 -0.649,-0.608 -1.057,-1.131 -1.227,-1.551 l 0,2.197 -2.03,0 0,-12.698 2.14,0 0,7.299 c 0,0.9 0.286,1.698 0.867,2.385 0.575,0.695 1.403,1.041 2.48,1.041 0.128,0 0.244,0 0.354,-0.018 0.103,-0.006 0.221,-0.018 0.346,-0.042 l 0,2.246 c -0.224,0.024 -0.389,0.036 -0.486,0.043 -0.092,0.012 -0.162,0.017 -0.198,0.017 m -15.641,1.395 1.637,0 3.159,3.427 -2.629,0 -2.167,-3.427 z M -35.093,0.938 c -0.891,-1.334 -2.191,-1.997 -3.901,-1.997 -1.86,0 -3.257,0.633 -4.192,1.906 -0.933,1.266 -1.402,2.909 -1.402,4.955 0,2.483 0.517,4.328 1.552,5.533 1.038,1.205 2.398,1.808 4.085,1.808 1.381,0 2.456,-0.33 3.22,-0.987 0.766,-0.657 1.275,-1.552 1.534,-2.672 l 2.306,0 c -0.133,1.479 -0.803,2.8 -2.008,3.963 -1.203,1.157 -2.892,1.741 -5.071,1.741 -2.559,0 -4.559,-0.895 -6.014,-2.678 -1.345,-1.644 -2.015,-3.75 -2.015,-6.319 0,-3.384 0.895,-5.886 2.685,-7.505 1.357,-1.224 3.041,-1.832 5.04,-1.832 2.319,0 4.167,0.742 5.533,2.24 1.138,1.241 1.811,2.775 2.014,4.614 l -2.306,0 c -0.232,-1.145 -0.584,-2.07 -1.06,-2.77"
             style="fill:#1a1a1a;fill-opacity:1;fill-rule:nonzero;stroke:none"
             id="path24"
             inkscape:connector-curvature="0" /></g><path
           d="m 474.452,415.541 2.143,0 0,17.418 -2.143,0 0,-17.418 z m -5.697,4.73 c 0,-1.309 -0.591,-2.252 -1.775,-2.831 -0.703,-0.34 -1.427,-0.517 -2.172,-0.517 -0.619,0 -1.148,0.177 -1.599,0.536 -0.45,0.353 -0.675,0.84 -0.675,1.448 0,0.822 0.331,1.413 0.986,1.778 0.392,0.222 0.967,0.383 1.741,0.481 l 1.287,0.158 c 0.392,0.049 0.795,0.131 1.202,0.24 0.408,0.113 0.743,0.253 1.005,0.42 l 0,-1.713 z m 2.791,-4.967 c 0.17,0.024 0.423,0.086 0.758,0.182 l 0,1.572 c -0.131,-0.026 -0.262,-0.043 -0.378,-0.056 -0.118,-0.012 -0.225,-0.018 -0.32,-0.018 -0.294,0 -0.483,0.067 -0.575,0.201 -0.091,0.134 -0.136,0.31 -0.136,0.536 l 0,7.31 c 0,1.199 -0.463,2.088 -1.385,2.657 -0.929,0.569 -2.14,0.858 -3.628,0.858 -1.284,0 -2.417,-0.313 -3.388,-0.928 -0.976,-0.612 -1.482,-1.704 -1.521,-3.278 l 1.987,0 c 0.079,0.658 0.246,1.157 0.508,1.492 0.463,0.606 1.251,0.91 2.359,0.91 0.962,0 1.698,-0.168 2.216,-0.493 0.517,-0.335 0.772,-0.868 0.772,-1.592 0,-0.359 -0.048,-0.636 -0.145,-0.825 -0.165,-0.347 -0.493,-0.551 -0.981,-0.615 l -3.393,-0.429 c -1.196,-0.149 -2.155,-0.545 -2.889,-1.196 -0.733,-0.645 -1.101,-1.558 -1.101,-2.734 0,-1.07 0.371,-1.971 1.12,-2.683 0.743,-0.719 1.704,-1.071 2.879,-1.071 0.98,0 1.875,0.206 2.684,0.626 0.816,0.426 1.44,0.919 1.872,1.492 0.071,-0.506 0.192,-0.895 0.368,-1.169 0.335,-0.518 0.868,-0.785 1.601,-0.785 0.305,0 0.542,0.011 0.716,0.036 m -40.866,17.655 -2.17,0 0,-2.41 2.17,0 0,2.41 z m -6.084,-16.614 c 0.943,0.779 1.54,2.009 1.774,3.689 l -2.075,0 c -0.201,-0.937 -0.555,-1.675 -1.071,-2.21 -0.518,-0.542 -1.218,-0.809 -2.101,-0.809 -1.153,0 -1.996,0.438 -2.532,1.302 -0.535,0.865 -0.804,1.936 -0.804,3.205 0,1.26 0.19,2.319 0.567,3.184 0.584,1.323 1.558,1.987 2.913,1.987 0.995,0 1.712,-0.255 2.164,-0.773 0.45,-0.521 0.736,-1.166 0.864,-1.945 l 2.075,0 c -0.182,1.698 -0.718,2.895 -1.613,3.588 -0.895,0.694 -2.06,1.041 -3.49,1.041 -1.671,0 -3.053,-0.621 -4.134,-1.862 -1.08,-1.236 -1.622,-2.974 -1.622,-5.202 0,-1.811 0.493,-3.332 1.482,-4.544 0.986,-1.211 2.31,-1.813 3.966,-1.813 1.477,0 2.69,0.389 3.637,1.162 m -13.861,3.926 c 0,-1.309 -0.589,-2.252 -1.774,-2.831 -0.699,-0.34 -1.424,-0.517 -2.173,-0.517 -0.618,0 -1.15,0.177 -1.595,0.536 -0.45,0.353 -0.675,0.84 -0.675,1.448 0,0.822 0.329,1.413 0.986,1.778 0.39,0.222 0.968,0.383 1.741,0.481 l 1.284,0.158 c 0.396,0.049 0.797,0.131 1.202,0.24 0.412,0.113 0.743,0.253 1.004,0.42 l 0,-1.713 z m 2.853,-3.287 c -0.296,0 -0.484,0.067 -0.579,0.201 -0.088,0.134 -0.134,0.31 -0.134,0.536 l 0,7.31 c 0,1.199 -0.462,2.088 -1.385,2.657 -0.927,0.569 -2.139,0.858 -3.631,0.858 -1.284,0 -2.41,-0.313 -3.384,-0.928 -0.974,-0.612 -1.482,-1.704 -1.522,-3.278 l 1.987,0 c 0.083,0.658 0.248,1.157 0.509,1.492 0.463,0.606 1.254,0.91 2.362,0.91 0.961,0 1.698,-0.168 2.212,-0.493 0.515,-0.335 0.774,-0.868 0.774,-1.592 0,-0.359 -0.049,-0.636 -0.144,-0.825 -0.167,-0.347 -0.493,-0.551 -0.983,-0.615 l -3.393,-0.429 c -1.193,-0.149 -2.155,-0.545 -2.891,-1.196 -0.731,-0.645 -1.099,-1.558 -1.099,-2.734 0,-1.07 0.374,-1.971 1.12,-2.683 0.742,-0.719 1.707,-1.071 2.882,-1.071 0.981,0 1.872,0.206 2.685,0.626 0.809,0.426 1.436,0.919 1.868,1.492 0.073,-0.506 0.195,-0.895 0.369,-1.169 0.331,-0.518 0.867,-0.785 1.603,-0.785 0.298,0 0.536,0.011 0.712,0.036 0.171,0.024 0.427,0.086 0.761,0.182 l 0,1.572 c -0.134,-0.026 -0.262,-0.043 -0.38,-0.056 -0.119,-0.012 -0.225,-0.018 -0.319,-0.018 m -14.235,15.975 -2.247,0 0,-14.075 -8.695,14.075 -2.769,0 0,-17.418 2.246,0 0,14.083 8.82,-14.083 2.645,0 0,17.418 z m 52.577,-6.524 c 0.323,0.1 0.74,0.154 1.242,0.154 0.995,0 1.68,-0.395 2.06,-1.19 0.229,-0.471 0.344,-1.095 0.344,-1.865 l 0,-7.993 2.17,0 0,8.139 c 0,1.278 -0.174,2.264 -0.523,2.952 -0.63,1.254 -1.848,1.884 -3.65,1.884 -0.815,0 -1.564,-0.167 -2.233,-0.49 -0.673,-0.322 -1.306,-0.861 -1.905,-1.604 l 0,1.82 -2.034,0 0,-12.701 2.14,0 0,6.642 c 0,0.827 0.052,1.463 0.158,1.911 0.107,0.447 0.338,0.88 0.691,1.297 0.444,0.523 0.956,0.87 1.54,1.044 m -23.42,-10.894 2.17,0 0,12.64 -2.17,0 0,-12.64 z m 7.606,2.733 c -0.588,0.902 -0.88,2.028 -0.88,3.372 0,1.404 0.292,2.606 0.88,3.598 0.584,0.995 1.522,1.498 2.806,1.498 1.449,0 2.472,-0.585 3.064,-1.757 0.375,-0.739 0.564,-1.704 0.564,-2.891 0,-1.309 -0.262,-2.498 -0.779,-3.57 -0.521,-1.065 -1.476,-1.601 -2.871,-1.601 -1.268,0 -2.2,0.451 -2.784,1.351 m 7.18,-1.18 c 0.989,1.333 1.481,3.019 1.481,5.067 0,2.115 -0.559,3.719 -1.679,4.806 -1.123,1.093 -2.496,1.637 -4.119,1.637 -1.81,0 -3.252,-0.629 -4.331,-1.893 -1.071,-1.269 -1.612,-2.967 -1.612,-5.098 0,-1.987 0.514,-3.576 1.527,-4.757 1.023,-1.174 2.399,-1.765 4.133,-1.765 2.076,0 3.614,0.664 4.6,2.003"
           style="fill:#1a1a1a;fill-opacity:1;fill-rule:nonzero;stroke:none"
           id="path26"
           inkscape:connector-curvature="0" /><g
           id="g28"
           transform="translate(480.3994,443.5146)"><path
             d="m 0,0 c -0.627,-0.849 -1.439,-1.272 -2.423,-1.272 -1.26,0 -2.185,0.462 -2.758,1.373 -0.574,0.916 -0.857,2.054 -0.857,3.411 0,1.595 0.328,2.801 0.992,3.619 0.669,0.819 1.533,1.233 2.599,1.233 0.962,0 1.768,-0.384 2.423,-1.157 C 0.627,6.44 0.952,5.253 0.952,3.655 0.952,2.066 0.633,0.852 0,0 m 0.877,8.364 c -0.481,0.593 -0.91,1.007 -1.291,1.244 -0.651,0.412 -1.461,0.619 -2.429,0.619 -1.747,0 -3.092,-0.676 -4.029,-2.031 -0.943,-1.354 -1.412,-2.952 -1.412,-4.805 0,-1.976 0.516,-3.558 1.546,-4.745 1.034,-1.184 2.252,-1.784 3.664,-1.784 0.871,0 1.649,0.174 2.325,0.524 0.676,0.349 1.267,0.916 1.763,1.698 l 0,-1.78 1.911,0 0,17.472 -2.048,0 0,-6.412 z m -53.983,-11.06 4.781,12.694 -2.332,0 -3.536,-10.336 -3.397,10.336 -2.474,0 4.684,-12.694 2.274,0 z m 9.26,10.052 c 0.664,0.7 1.474,1.047 2.448,1.047 1.357,0 2.322,-0.505 2.903,-1.528 0.313,-0.547 0.512,-1.281 0.597,-2.2 l -6.992,0 c 0.04,1.083 0.387,1.978 1.044,2.681 m 2.253,-10.494 c 0.645,0 1.22,0.067 1.732,0.189 0.946,0.225 1.744,0.651 2.389,1.281 0.383,0.365 0.731,0.831 1.04,1.403 0.311,0.569 0.499,1.093 0.555,1.556 l -2.095,0 c -0.158,-0.561 -0.42,-1.054 -0.791,-1.489 -0.654,-0.733 -1.54,-1.105 -2.641,-1.105 -1.188,0 -2.061,0.393 -2.624,1.175 -0.566,0.776 -0.865,1.814 -0.907,3.105 l 9.237,0 c 0,1.281 -0.058,2.212 -0.192,2.794 -0.139,0.852 -0.42,1.594 -0.842,2.237 -0.442,0.669 -1.081,1.214 -1.924,1.631 -0.84,0.423 -1.71,0.63 -2.603,0.63 -1.777,0 -3.22,-0.633 -4.315,-1.902 -1.102,-1.269 -1.65,-2.922 -1.65,-4.958 0,-2.067 0.542,-3.674 1.638,-4.824 1.089,-1.145 2.423,-1.723 3.993,-1.723 m 30.98,17.854 -2.17,0 0,-2.408 2.17,0 0,2.408 z M -30.798,4.605 c 0,0.898 0.289,1.695 0.861,2.386 0.585,0.694 1.413,1.038 2.487,1.038 0.125,0 0.241,-0.003 0.35,-0.012 0.104,-0.006 0.222,-0.028 0.353,-0.052 l 0,2.249 c -0.231,0.021 -0.396,0.043 -0.489,0.049 -0.095,0.006 -0.162,0.006 -0.204,0.006 -0.844,0 -1.595,-0.301 -2.244,-0.91 -0.648,-0.612 -1.056,-1.126 -1.22,-1.558 l 0,2.197 -2.034,0 0,-12.694 2.14,0 0,7.301 z M 26.996,0 c -0.633,-0.849 -1.442,-1.272 -2.423,-1.272 -1.265,0 -2.184,0.462 -2.76,1.373 -0.572,0.916 -0.861,2.054 -0.861,3.411 0,1.595 0.334,2.801 0.998,3.619 0.663,0.819 1.53,1.233 2.599,1.233 0.962,0 1.765,-0.384 2.417,-1.157 0.651,-0.767 0.98,-1.954 0.98,-3.552 0,-1.589 -0.317,-2.803 -0.95,-3.655 m 0.87,14.776 0,-6.412 c -0.474,0.593 -0.903,1.007 -1.284,1.244 -0.651,0.412 -1.461,0.619 -2.429,0.619 -1.747,0 -3.091,-0.676 -4.029,-2.031 -0.946,-1.354 -1.418,-2.952 -1.418,-4.805 0,-1.976 0.517,-3.558 1.552,-4.745 1.032,-1.184 2.252,-1.784 3.658,-1.784 0.877,0 1.656,0.174 2.331,0.524 0.676,0.349 1.267,0.916 1.76,1.698 l 0,-1.78 1.911,0 0,17.472 -2.052,0 z M -87.728,-3.153 c 2.947,0 4.953,1.053 6.008,3.153 0.582,1.153 0.871,2.8 0.871,4.943 l 0,9.773 -2.382,0 0,-10.753 c 0,-1.26 -0.193,-2.259 -0.582,-3.001 -0.724,-1.37 -2.091,-2.052 -4.106,-2.052 -1.674,0 -2.87,0.636 -3.576,1.897 -0.475,0.837 -0.715,1.886 -0.715,3.156 l 0,10.753 -2.384,0 0,-9.773 c 0,-2.143 0.289,-3.79 0.871,-4.943 1.047,-2.1 3.05,-3.153 5.995,-3.153 m 69.613,2.292 c -0.615,-0.344 -1.322,-0.518 -2.131,-0.518 -1.351,0 -2.307,0.35 -2.855,1.032 -0.295,0.384 -0.477,0.928 -0.542,1.638 l -2.045,0 c 0.055,-1.267 0.481,-2.329 1.276,-3.187 0.794,-0.855 2.145,-1.288 4.057,-1.288 1.777,0 3.098,0.412 3.968,1.236 0.865,0.819 1.297,1.799 1.297,2.928 0,1.169 -0.414,2.024 -1.242,2.572 -0.529,0.35 -1.576,0.709 -3.141,1.08 l -1.436,0.344 c -0.627,0.149 -1.102,0.323 -1.425,0.521 -0.56,0.328 -0.84,0.767 -0.84,1.323 0,0.506 0.213,0.91 0.64,1.218 0.423,0.308 1.05,0.462 1.875,0.462 1.235,0 2.105,-0.282 2.604,-0.842 0.311,-0.396 0.482,-0.831 0.524,-1.315 l 2.021,0 c 0.012,0.824 -0.25,1.592 -0.785,2.303 -0.855,1.124 -2.256,1.69 -4.194,1.69 -1.48,0 -2.66,-0.375 -3.536,-1.114 -0.88,-0.745 -1.316,-1.72 -1.316,-2.919 0,-1.019 0.466,-1.82 1.395,-2.395 0.523,-0.335 1.336,-0.63 2.434,-0.904 l 1.726,-0.423 c 0.922,-0.228 1.54,-0.432 1.853,-0.609 0.491,-0.28 0.737,-0.694 0.737,-1.242 0,-0.715 -0.308,-1.248 -0.919,-1.591 m 7.502,10.795 -2.17,0 0,-12.63 2.17,0 0,12.63 z M 13.964,2.033 c 0,-1.312 -0.591,-2.252 -1.775,-2.827 -0.703,-0.351 -1.427,-0.524 -2.172,-0.524 -0.616,0 -1.148,0.183 -1.599,0.536 -0.45,0.353 -0.675,0.837 -0.675,1.451 0,0.816 0.331,1.407 0.986,1.778 0.392,0.222 0.974,0.384 1.741,0.481 l 1.284,0.158 c 0.395,0.049 0.798,0.128 1.205,0.244 0.408,0.109 0.746,0.249 1.005,0.417 l 0,-1.714 z m 2.849,-3.29 c -0.292,0 -0.481,0.07 -0.573,0.207 -0.091,0.131 -0.139,0.307 -0.139,0.527 l 0,7.31 c 0,1.208 -0.463,2.091 -1.382,2.663 -0.932,0.57 -2.14,0.856 -3.628,0.856 C 9.804,10.306 8.674,9.998 7.7,9.383 6.729,8.769 6.221,7.673 6.185,6.099 l 1.984,0 c 0.079,0.658 0.246,1.16 0.508,1.495 0.466,0.602 1.251,0.906 2.365,0.906 0.956,0 1.692,-0.164 2.21,-0.499 0.514,-0.325 0.772,-0.855 0.772,-1.582 0,-0.362 -0.048,-0.633 -0.145,-0.828 C 13.714,5.247 13.386,5.04 12.898,4.976 L 9.502,4.553 C 8.315,4.401 7.351,4.005 6.616,3.354 5.88,2.709 5.515,1.796 5.515,0.621 c 0,-1.075 0.371,-1.969 1.12,-2.684 0.746,-0.719 1.704,-1.075 2.879,-1.075 0.98,0 1.875,0.213 2.684,0.63 0.813,0.423 1.437,0.916 1.872,1.488 0.071,-0.501 0.192,-0.895 0.368,-1.171 0.333,-0.515 0.868,-0.78 1.604,-0.78 0.299,0 0.539,0.016 0.713,0.037 0.173,0.021 0.423,0.082 0.758,0.177 l 0,1.573 C 17.379,-1.208 17.251,-1.227 17.135,-1.236 17.014,-1.248 16.91,-1.257 16.813,-1.257 m -92.196,5.201 c 0,0.828 0.055,1.467 0.158,1.912 0.111,0.444 0.341,0.876 0.698,1.296 0.438,0.521 0.952,0.865 1.537,1.041 0.322,0.101 0.736,0.153 1.241,0.153 0.992,0 1.686,-0.396 2.058,-1.184 0.231,-0.473 0.347,-1.093 0.347,-1.866 l 0,-7.992 2.167,0 0,8.138 c 0,1.281 -0.174,2.261 -0.517,2.949 -0.633,1.254 -1.851,1.878 -3.647,1.878 -0.824,0 -1.57,-0.158 -2.24,-0.484 -0.669,-0.326 -1.309,-0.858 -1.905,-1.604 l 0,1.817 -2.034,0 0,-12.694 2.137,0 0,6.64 z m 13.526,5.99 -2.167,0 0,-12.63 2.167,0 0,12.63 z m 0,4.782 -2.167,0 0,-2.408 2.167,0 0,2.408 z"
             style="fill:#1a1a1a;fill-opacity:1;fill-rule:nonzero;stroke:none"
             id="path30"
             inkscape:connector-curvature="0" /></g><g
           id="g32"
           transform="translate(308.6914,449.6504)"><path
             d="m 0,0 -15.494,16.07 -0.439,0 0,-24.836 4.076,0 0,15.288 15.525,-16.07 0.444,0 0,24.839 L 0,15.291 0,0 z"
             style="fill:#ffffff;fill-opacity:1;fill-rule:nonzero;stroke:none"
             id="path34"
             inkscape:connector-curvature="0" /></g><g
           id="g36"
           transform="translate(283.3115,451.0107)"><path
             d="m 0,0 c 0,-4.724 -2.006,-7.137 -5.78,-7.137 -3.838,0 -5.843,2.38 -5.843,7.037 l 0,14.031 -4.281,0 0,-14.068 c 0,-7.033 3.739,-10.771 10.026,-10.771 5.741,0 9.648,3.807 9.648,10.838 l 0,14.001 -3.77,0 L 0,0 z"
             style="fill:#ffffff;fill-opacity:1;fill-rule:nonzero;stroke:none"
             id="path38"
             inkscape:connector-curvature="0" /></g><g
           id="g40"
           transform="translate(321.4658,452.9526)"><path
             d="m 0,0 c 0,5.296 3.47,8.899 8.156,8.899 2.374,0 4.45,-1.023 6.355,-3.062 l 0.438,4.691 c -2.206,1.528 -4.519,2.279 -7.066,2.279 -6.964,0 -12.23,-5.435 -12.23,-12.847 0,-4.209 1.699,-7.812 4.651,-10.192 2.109,-1.702 4.723,-2.618 7.478,-2.618 2.614,0 5.098,0.819 7.235,2.344 l 0.24,5.338 C 12.91,-7.548 10.601,-8.738 7.913,-8.738 3.299,-8.738 0,-5.067 0,0"
             style="fill:#ffffff;fill-opacity:1;fill-rule:nonzero;stroke:none"
             id="path42"
             inkscape:connector-curvature="0" /></g><g
           id="g44"
           transform="translate(175.4619,442.2666)"><path
             d="M 0,0 0.583,0.825 1.17,0 1.759,0.113 1.482,-0.49 c 0,0 -0.497,0.116 -0.895,0.116 -0.403,0 -0.898,-0.116 -0.898,-0.116 L -0.584,0.113 0,0 z m -7.828,-9.322 -0.003,0 0,-0.128 c 0,-1.391 1.126,-2.52 2.521,-2.52 l 0.422,0 0,-0.983 c -0.009,-1.087 -0.528,-2.051 -1.327,-2.663 0.247,-0.375 0.496,-0.716 0.751,-1.035 1.118,0.855 1.845,2.2 1.845,3.722 l 0,2.219 -1.694,0 c -0.695,0 -1.255,0.56 -1.255,1.254 l 0.011,0.143 c 0,0.566 -0.376,1.047 -0.89,1.196 -0.488,0.177 -0.833,0.639 -0.833,1.184 0,0.031 0,0.149 0.032,0.265 0.019,0.073 0.052,0.158 0.052,0.377 0,0.472 -0.262,0.88 -0.647,1.096 l -0.005,-0.003 c -1.027,0.59 -1.717,1.692 -1.717,2.958 0,0.244 0.022,0.478 0.071,0.703 l 4.048,-1.151 4.144,-4.92 2.142,1.901 -0.003,2.837 -1.325,0 c 0,0 0.602,1.285 2.075,1.285 1.363,0 2.044,-0.98 2.28,-1.903 l 0.982,-3.679 3.769,4.479 4.049,1.151 c 0.046,-0.225 0.074,-0.459 0.074,-0.703 0,-1.266 -0.691,-2.368 -1.72,-2.958 l -0.003,0.003 C 9.627,-5.411 9.365,-5.819 9.365,-6.291 9.365,-6.51 9.403,-6.595 9.423,-6.668 9.449,-6.784 9.449,-6.902 9.449,-6.933 9.449,-7.478 9.104,-7.94 8.623,-8.117 8.106,-8.266 7.73,-8.747 7.73,-9.313 l 0.013,-0.143 c 0,-0.694 -0.565,-1.254 -1.26,-1.254 l -3.105,0 c 0,0 0.102,-2.204 -1.578,-3.987 -0.374,-0.396 -0.946,-1.473 -0.318,-2.809 0.661,-1.394 2.003,-2.018 2.003,-2.018 0.484,0.25 1.251,0.864 1.251,0.864 -1.138,0.326 -1.749,1.059 -2.128,1.738 -0.295,0.526 -0.129,1.129 0.229,1.464 0.499,0.472 1.065,1.455 1.304,2.063 0.295,0.758 0.417,1.425 0.417,1.425 l 1.925,0 c 1.392,0 2.521,1.129 2.521,2.52 l 0,0.128 -10e-4,0 c 0.997,0.335 1.712,1.275 1.712,2.389 0,0.216 -0.026,0.423 -0.075,0.63 1.414,0.803 2.37,2.319 2.37,4.063 0,0.813 -0.204,1.571 -0.565,2.231 L 6.889,-1.549 4.395,-4.514 c 0,0 -0.201,0.637 -0.364,1.349 -0.342,1.5 -1.42,2.148 -1.42,2.148 L 3.928,1.857 1.777,1.431 0.587,3.047 -0.641,1.425 -2.754,1.857 -1.438,-1.017 c -0.86,-0.593 -1.498,-1.585 -1.498,-2.884 0,-0.098 0.008,-0.259 0.008,-0.259 l 1.475,0 0.015,-0.941 -0.732,-0.667 -3.546,4.219 -5.554,1.54 c -0.361,-0.66 -0.566,-1.418 -0.566,-2.231 0,-1.744 0.956,-3.26 2.371,-4.063 -0.054,-0.207 -0.079,-0.414 -0.079,-0.63 0,-1.114 0.719,-2.054 1.716,-2.389 m 37.007,11.2 C 29.176,2.015 29.176,2.143 29.176,2.28 l 0,2.882 1.641,-1.641 -1.638,-1.643 z m 0.255,-8.099 c 0.609,-1.251 0.83,-3.019 0.83,-4.246 0,-1.47 -0.41,-5.22 -4.187,-8.241 -1.709,-1.367 -3.139,-1.668 -4.649,-1.991 -1.138,-0.243 -2.308,-0.493 -3.67,-1.169 -2.944,-1.467 -4.019,-2.872 -4.804,-3.896 l -0.142,-0.175 c -4.311,-5.565 -9.98,-6.167 -12.209,-6.167 -2.229,0 -7.9,0.602 -12.214,6.167 l -0.137,0.175 c -0.785,1.024 -1.866,2.429 -4.809,3.896 -1.357,0.676 -2.532,0.926 -3.666,1.169 -1.514,0.323 -2.94,0.624 -4.65,1.991 -3.78,3.021 -4.185,6.771 -4.185,8.241 0,1.227 0.214,2.995 0.834,4.246 1.111,2.268 1.543,4.648 1.543,8.501 l 0,3.798 2.636,0 c -0.251,-0.819 -0.381,-1.753 -0.381,-2.797 0,-1.719 0.376,-3.722 0.918,-5.734 -0.159,-1.017 -0.356,-1.811 -0.531,-2.526 l -0.026,-0.11 c -0.129,-0.52 -0.346,-1.056 -0.572,-1.616 -0.434,-1.077 -0.923,-2.301 -0.923,-3.762 0,-2.629 1.652,-6.016 6.304,-6.924 2.585,-0.502 4.402,-1.126 7.155,-3.147 1.642,-1.202 2.529,-2.353 3.243,-3.272 0.25,-0.316 0.484,-0.621 0.724,-0.882 3.382,-3.749 7.872,-3.939 8.737,-3.939 0.864,0 5.354,0.19 8.736,3.939 0.239,0.261 0.474,0.566 0.724,0.882 0.713,0.919 1.6,2.07 3.242,3.272 2.753,2.021 4.57,2.645 7.157,3.147 4.652,0.908 6.305,4.295 6.305,6.924 0,1.461 -0.494,2.685 -0.929,3.762 -0.223,0.56 -0.44,1.096 -0.567,1.616 l -0.028,0.11 c -0.178,0.715 -0.371,1.509 -0.531,2.526 0.542,2.012 0.915,4.015 0.915,5.734 0,1.044 -0.129,1.978 -0.376,2.797 l 2.636,0 0,-3.798 c 0,-3.853 0.432,-6.233 1.547,-8.501 m -59.048,9.742 1.642,1.641 0,-2.882 c 0,-0.137 0,-0.265 -0.003,-0.402 l -1.639,1.643 z m 6.174,-10.712 c 0.236,0.584 0.478,1.183 0.627,1.789 l 0.029,0.115 c 0.02,0.089 0.041,0.171 0.061,0.256 1.484,-4.419 3.409,-8.302 3.541,-8.571 l 0.63,-1.253 c 0,0 1.283,3.067 1.578,3.771 0.778,-0.195 4.578,-1.187 4.578,-1.187 l -0.899,1.391 c -0.023,0.033 -2.454,3.81 -5.196,8.26 -0.823,1.339 -1.38,2.928 -1.627,4.407 0.653,-0.551 1.525,-0.883 2.549,-0.883 1.301,0 2.43,0.53 3.2,1.4 0.278,-6.592 1.757,-12.728 4.24,-17.473 2.829,-5.408 6.64,-8.385 10.732,-8.385 4.09,0 7.902,2.977 10.73,8.385 2.485,4.745 3.964,10.881 4.236,17.473 0.778,-0.87 1.909,-1.4 3.205,-1.4 1.023,0 1.892,0.332 2.548,0.883 -0.247,-1.479 -0.807,-3.068 -1.627,-4.407 -2.745,-4.45 -5.175,-8.227 -5.198,-8.26 l -0.895,-1.391 c 0,0 3.798,0.992 4.577,1.187 0.296,-0.704 1.577,-3.771 1.577,-3.771 l 0.628,1.253 c 0.131,0.269 2.061,4.152 3.543,8.571 0.018,-0.085 0.043,-0.167 0.061,-0.256 l 0.03,-0.115 c 0.148,-0.606 0.391,-1.205 0.626,-1.789 0.411,-1.017 0.831,-2.067 0.831,-3.276 0,-0.776 -0.254,-4.68 -5.26,-5.66 -2.712,-0.524 -4.74,-1.221 -7.671,-3.373 -1.79,-1.312 -2.78,-2.587 -3.5,-3.512 -0.247,-0.316 -0.46,-0.591 -0.66,-0.816 -3.02,-3.348 -7.011,-3.512 -7.781,-3.512 -0.77,0 -4.763,0.164 -7.783,3.512 -0.203,0.225 -0.417,0.5 -0.658,0.816 -0.725,0.925 -1.711,2.2 -3.5,3.512 -2.936,2.152 -4.962,2.849 -7.672,3.373 -5.007,0.98 -5.259,4.884 -5.259,5.66 0,1.209 0.42,2.259 0.829,3.276 m 0.755,13.269 c 0.046,0.119 0.094,0.235 0.148,0.35 0.05,0.097 0.099,0.198 0.152,0.292 0.683,1.218 1.919,2.106 4.087,2.106 2.545,0 3.729,-2.118 3.729,-3.555 0,-1.78 -1.264,-3.073 -3,-3.073 -1.517,0 -2.5,0.925 -2.5,2.365 0,0.24 0.058,0.523 0.172,0.797 0.03,0.07 0.059,0.14 0.099,0.207 0.048,0.088 0.11,0.173 0.173,0.255 0.265,0.345 0.668,0.594 1.244,0.594 0.774,0 1.213,-0.581 1.279,-1.065 0.002,-0.037 0.006,-0.082 0.006,-0.119 l 1.289,0 c 0,1.196 -1.033,2.475 -2.574,2.475 -1.137,0 -1.994,-0.6 -2.492,-1.413 -0.002,-0.006 -0.002,-0.009 -0.007,-0.015 -0.092,-0.152 -0.171,-0.31 -0.239,-0.478 -0.295,-0.7 -0.435,-1.522 -0.435,-2.413 0,-2.213 0.819,-4.815 1.963,-6.681 1.75,-2.84 3.367,-5.399 4.325,-6.896 -0.953,0.246 -2.465,0.639 -2.465,0.639 0,0 -0.567,-1.358 -0.908,-2.177 -0.883,1.912 -2.515,5.664 -3.549,9.362 -0.561,2 -0.944,3.978 -0.944,5.646 0,0.926 0.109,1.911 0.447,2.797 m 0.434,6.516 c 0.044,0.639 0.362,2.115 2.403,1.982 l 0.251,-0.015 0.193,0.152 c 0.178,0.142 0.765,0.748 0.892,2.654 0.085,1.33 -0.34,2.842 -0.782,4.443 -0.532,1.912 -1.134,4.072 -0.99,6.319 0.166,2.477 1.084,4.519 2.658,5.895 1.59,1.397 3.834,2.076 6.313,1.908 1.423,-0.091 2.624,-0.657 3.478,-1.631 0.872,-0.992 1.32,-2.353 1.228,-3.719 -0.06,-0.932 -0.413,-1.705 -1.018,-2.234 -0.589,-0.515 -1.362,-0.755 -2.239,-0.701 -1.548,0.107 -2.484,1.118 -2.385,2.584 0.026,0.399 0.22,1.002 0.674,1.401 0.32,0.28 0.71,0.405 1.169,0.374 0.857,-0.058 1.271,-0.791 1.236,-1.299 l 1.289,-0.082 c 0.005,0.042 0.005,0.088 0.005,0.14 0,0.794 -0.445,1.625 -1.195,2.109 l 0.008,0.009 c -1.332,0.949 -3.513,0.976 -5.432,0.07 -2.453,-1.166 -3.973,-3.558 -4.17,-6.568 -0.189,-2.901 0.277,-4.977 0.69,-6.812 0.353,-1.564 0.656,-2.912 0.546,-4.556 -0.134,-2.033 -0.727,-4.428 -2.803,-4.291 -1.198,0.079 -2.086,0.898 -2.019,1.868 M -10.5,40.142 c -1.274,2.16 -3.535,6.002 -3.765,6.394 0.052,0.119 0.064,0.14 0.123,0.268 0.14,-0.009 0.163,-0.012 0.292,-0.015 0.179,-0.299 0.763,-1.269 0.763,-1.269 0,0 0.953,0.565 1.248,0.745 0.102,-0.055 0.117,-0.064 0.219,-0.121 -0.006,-0.141 -0.006,-0.168 -0.015,-0.299 -0.276,-0.177 -1.19,-0.758 -1.19,-0.758 l 1.791,-2.98 0.578,0.476 c 0.015,0.018 1.582,1.302 3.591,2.054 l 0.552,0.207 -1.075,3.99 c 0,0 -1.152,-0.32 -1.501,-0.414 -0.114,0.098 -0.141,0.122 -0.269,0.231 0.054,0.159 0.064,0.195 0.113,0.335 0.35,0.1 1.499,0.414 1.499,0.414 0,0 -0.315,1.144 -0.414,1.497 0.099,0.116 0.125,0.14 0.235,0.268 0.159,-0.048 0.194,-0.067 0.337,-0.109 0.094,-0.35 0.409,-1.498 0.409,-1.498 0,0 1.154,0.314 1.499,0.411 0.117,-0.097 0.145,-0.118 0.272,-0.234 C -5.261,49.577 -5.271,49.54 -5.321,49.4 -5.67,49.303 -6.822,48.986 -6.822,48.986 l 1.08,-3.929 0.623,0.171 c 0.018,0.002 2.115,0.571 4.577,0.69 l 0.614,0.037 0,4.392 -1.703,0 c -0.133,0.197 -0.204,0.307 -0.356,0.529 0.152,0.222 0.223,0.335 0.356,0.526 l 1.703,0 0,1.723 c 0.19,0.131 0.3,0.213 0.531,0.378 0.231,-0.165 0.341,-0.247 0.529,-0.378 l 0,-1.723 1.705,0 C 2.969,51.211 3.041,51.098 3.188,50.876 3.041,50.654 2.969,50.544 2.837,50.347 l -1.705,0 0,-4.392 0.612,-0.037 c 2.465,-0.119 4.562,-0.688 4.581,-0.69 l 0.622,-0.171 1.08,3.929 c 0,0 -1.153,0.317 -1.502,0.414 -0.048,0.14 -0.06,0.177 -0.112,0.335 0.128,0.116 0.153,0.137 0.268,0.234 0.35,-0.097 1.502,-0.411 1.502,-0.411 0,0 0.315,1.148 0.409,1.498 0.145,0.042 0.179,0.061 0.338,0.109 C 9.04,51.037 9.063,51.013 9.166,50.897 9.067,50.544 8.752,49.4 8.752,49.4 c 0,0 1.149,-0.317 1.497,-0.414 0.05,-0.14 0.061,-0.176 0.11,-0.335 -0.125,-0.109 -0.151,-0.133 -0.265,-0.231 -0.35,0.094 -1.502,0.414 -1.502,0.414 L 7.519,44.844 8.07,44.637 c 2.009,-0.752 3.575,-2.036 3.59,-2.054 l 0.58,-0.476 0.388,0.643 1.398,2.337 c 0,0 -0.91,0.581 -1.187,0.758 -0.007,0.131 -0.007,0.158 -0.015,0.299 0.102,0.057 0.117,0.066 0.216,0.121 0.3,-0.18 1.248,-0.745 1.248,-0.745 0,0 0.587,0.97 0.767,1.269 0.125,0.003 0.151,0.006 0.288,0.015 0.064,-0.128 0.071,-0.149 0.128,-0.268 -0.232,-0.392 -2.492,-4.234 -3.765,-6.394 -1.4,2.087 -5.917,3.67 -11.103,3.67 -5.188,0 -9.705,-1.583 -11.103,-3.67 m 23.017,-4.21 c 2.48,0.168 4.725,-0.511 6.314,-1.908 1.573,-1.376 2.491,-3.418 2.653,-5.895 0.148,-2.247 -0.455,-4.407 -0.985,-6.319 -0.446,-1.601 -0.868,-3.113 -0.781,-4.443 0.124,-1.906 0.714,-2.512 0.891,-2.654 l 0.194,-0.152 0.251,0.015 c 2.039,0.133 2.357,-1.343 2.403,-1.982 0.061,-0.97 -0.824,-1.789 -2.021,-1.868 -2.074,-0.137 -2.669,2.258 -2.803,4.291 -0.11,1.644 0.193,2.992 0.546,4.556 0.414,1.835 0.88,3.911 0.691,6.812 -0.198,3.01 -1.718,5.402 -4.171,6.568 -1.919,0.906 -4.104,0.879 -5.431,-0.07 l 0.009,-0.009 C 9.525,32.39 9.082,31.559 9.082,30.765 c 0,-0.052 0,-0.098 0.003,-0.14 l 1.289,0.082 c -0.033,0.508 0.376,1.241 1.237,1.299 0.455,0.031 0.849,-0.094 1.172,-0.374 0.452,-0.399 0.644,-1.002 0.671,-1.401 0.094,-1.466 -0.843,-2.477 -2.385,-2.584 -0.876,-0.054 -1.651,0.186 -2.238,0.701 -0.607,0.529 -0.959,1.302 -1.019,2.234 -0.092,1.366 0.355,2.727 1.228,3.719 0.853,0.974 2.055,1.54 3.477,1.631 M 11.333,24.26 c -0.397,0.764 -0.822,1.486 -1.262,2.152 0.353,-0.055 0.712,-0.076 1.084,-0.049 2.15,0.14 3.595,1.632 3.595,3.665 0,0.094 -0.004,0.192 -0.01,0.292 -0.043,0.663 -0.312,1.333 -0.721,1.857 0.382,-0.092 0.757,-0.219 1.126,-0.396 1.187,-0.557 3.208,-2.018 3.435,-5.478 0.031,-0.436 0.046,-0.853 0.046,-1.251 0,-2.073 -0.36,-3.653 -0.706,-5.19 -0.307,-1.372 -0.599,-2.672 -0.599,-4.173 0,-0.249 0.009,-0.501 0.023,-0.757 0.182,-2.718 1.006,-4.118 1.919,-4.818 C 17.613,10.038 16.32,9.25 15.495,8.172 15.084,14.238 13.645,19.85 11.333,24.26 m -17.7,-2.882 0,-3.442 c -0.368,0.368 -1.215,1.217 -1.215,1.217 0,0 -0.849,-0.849 -1.217,-1.211 l 0,5.04 2.432,-1.604 z m 6.729,-10.156 8.658,0 3.682,-2.429 c -3.564,0 -10.48,0.003 -12.34,0.003 0.368,0.362 1.212,1.211 1.212,1.211 0,0 -0.844,0.847 -1.212,1.215 m 13.324,1.427 c 0.173,-1.056 0.31,-2.139 0.412,-3.235 L -8.59,24.388 c 0.424,0.761 0.872,1.452 1.336,2.094 L 13.686,12.649 z M 0.603,31.358 c 3.586,0 6.991,-2.733 9.59,-7.697 1.398,-2.676 2.471,-5.823 3.173,-9.253 L -6.458,27.499 c 2.12,2.514 4.547,3.859 7.061,3.859 m -3.77,3.567 c 0.569,-1.056 0.603,-2.298 0.58,-2.898 -0.943,-0.377 -1.861,-0.919 -2.741,-1.616 0.003,0.027 0.007,0.055 0.007,0.086 0.113,1.71 -0.448,3.405 -1.544,4.653 -0.261,0.298 -0.541,0.563 -0.844,0.794 1.289,-0.465 2.867,-0.809 4.542,-1.019 M 2.9,34.779 c -0.31,-0.864 -0.394,-1.72 -0.406,-2.347 -0.622,0.143 -1.255,0.216 -1.891,0.216 -0.641,0 -1.271,-0.073 -1.898,-0.216 -0.006,0.627 -0.09,1.483 -0.4,2.347 0.761,-0.061 1.535,-0.091 2.298,-0.091 0.761,0 1.535,0.03 2.297,0.091 m -2.297,1.199 c -6.03,0 -9.954,1.713 -10.243,2.7 -0.011,0.036 -0.015,0.076 -0.015,0.112 0,1.482 4.087,3.729 10.258,3.729 6.166,0 10.256,-2.247 10.256,-3.729 0,-0.965 -3.996,-2.812 -10.256,-2.812 m 5.919,-5.484 c 0.003,-0.028 0.006,-0.056 0.006,-0.083 -0.875,0.697 -1.792,1.239 -2.737,1.616 -0.021,0.6 0.012,1.842 0.581,2.898 1.676,0.21 3.254,0.56 4.547,1.019 C 8.61,35.713 8.332,35.448 8.07,35.15 6.973,33.902 6.413,32.207 6.522,30.494 M -16.717,19.862 c -0.348,1.537 -0.7,3.117 -0.7,5.19 0,0.398 0.011,0.815 0.037,1.251 0.231,3.46 2.252,4.921 3.441,5.478 0.362,0.177 0.745,0.304 1.121,0.396 -0.406,-0.524 -0.676,-1.194 -0.717,-1.857 -0.007,-0.1 -0.01,-0.198 -0.01,-0.292 0,-2.033 1.441,-3.525 3.597,-3.665 0.368,-0.027 0.729,-0.006 1.081,0.049 -0.44,-0.666 -0.86,-1.388 -1.262,-2.152 -2.31,-4.41 -3.751,-10.022 -4.163,-16.088 -0.824,1.078 -2.117,1.866 -3.767,1.942 0.915,0.7 1.741,2.1 1.919,4.818 0.015,0.256 0.023,0.508 0.023,0.757 0,1.501 -0.292,2.801 -0.6,4.173 M 14.321,3.723 c -0.105,-6.925 -1.562,-13.395 -4.128,-18.292 -2.599,-4.964 -6.004,-7.694 -9.59,-7.694 -3.587,0 -6.994,2.73 -9.59,7.694 -2.565,4.903 -4.024,11.367 -4.131,18.292 l 27.439,0 z m -27.442,1.29 c 0.052,5.989 1.114,11.663 3.033,16.289 l 0,-6.477 c 0,0 1.984,1.985 2.504,2.502 0.519,-0.523 2.506,-2.517 2.506,-2.517 l 0,5.713 12.147,-8.011 -9.806,0 c 0,0 1.975,-1.987 2.49,-2.505 -0.515,-0.523 -2.49,-2.505 -2.49,-2.505 L 14.247,7.5 c 0.044,-0.819 0.07,-1.65 0.079,-2.487 l -27.447,0 z m 36.71,1.707 c 0.055,-0.094 0.103,-0.195 0.152,-0.292 0.053,-0.115 0.104,-0.231 0.15,-0.35 0.336,-0.886 0.445,-1.871 0.445,-2.797 0,-1.668 -0.386,-3.646 -0.943,-5.646 -1.037,-3.698 -2.666,-7.45 -3.546,-9.362 -0.346,0.819 -0.91,2.177 -0.91,2.177 0,0 -1.513,-0.393 -2.47,-0.639 0.96,1.497 2.575,4.056 4.325,6.896 1.149,1.866 1.968,4.468 1.968,6.681 0,0.891 -0.142,1.713 -0.442,2.413 -0.064,0.168 -0.143,0.326 -0.234,0.478 -0.003,0.006 -0.003,0.009 -0.007,0.015 -0.494,0.813 -1.35,1.413 -2.492,1.413 -1.54,0 -2.574,-1.279 -2.574,-2.475 l 1.29,0 c 0,0.037 0.002,0.082 0.011,0.119 0.063,0.484 0.503,1.065 1.273,1.065 0.577,0 0.979,-0.249 1.244,-0.594 C 20.893,5.74 20.955,5.655 21.003,5.567 21.039,5.5 21.072,5.43 21.103,5.36 21.217,5.086 21.27,4.803 21.27,4.563 c 0,-1.44 -0.98,-2.365 -2.496,-2.365 -1.736,0 -2.999,1.293 -2.999,3.073 0,1.437 1.182,3.555 3.726,3.555 2.171,0 3.406,-0.888 4.088,-2.106 m 5.208,0.646 -4.088,0 c -0.562,1.001 -1.37,1.75 -2.396,2.203 1.436,0.396 2.437,1.556 2.437,2.922 0,0.061 -0.004,0.128 -0.007,0.189 -0.099,1.497 -1.055,3.18 -3.402,3.192 -0.113,0.229 -0.277,0.697 -0.334,1.577 -0.007,0.091 -0.011,0.192 -0.011,0.289 0,1.056 0.349,2.304 0.747,3.728 0.496,1.79 1.058,3.793 1.058,5.953 0,0.262 -0.011,0.527 -0.026,0.792 -0.186,2.83 -1.255,5.174 -3.091,6.784 -1.85,1.619 -4.43,2.41 -7.254,2.228 -0.508,-0.031 -0.989,-0.119 -1.449,-0.247 0.448,0.32 0.786,0.673 0.979,1.056 l 4.971,8.437 -0.789,1.662 -1.839,-0.085 c 0,0 -0.318,-0.53 -0.455,-0.761 -0.231,0.14 -0.785,0.468 -0.785,0.468 l -1.569,-0.873 0.094,-1.762 c 0,0 0.484,-0.314 0.69,-0.442 -0.163,-0.271 -0.216,-0.356 -0.39,-0.648 -0.596,0.426 -1.605,1.072 -2.821,1.595 0.135,0.511 0.283,1.059 0.435,1.622 0.288,-0.082 0.913,-0.252 0.913,-0.252 l 1.441,1.25 -0.598,1.808 c 0,0 -0.63,0.168 -0.922,0.253 0.084,0.292 0.256,0.919 0.256,0.919 l -1.248,1.44 -1.81,-0.6 c 0,0 -0.175,-0.63 -0.254,-0.919 -0.292,0.079 -0.914,0.25 -0.914,0.25 l -1.46,-1.242 0.618,-1.817 c 0,0 0.622,-0.171 0.915,-0.25 C 6.297,47.564 6.182,47.133 6.04,46.624 5.297,46.792 3.969,47.05 2.423,47.172 l 0,1.884 1.103,0 1.214,1.82 -1.214,1.82 -1.103,0 0,1.093 -1.82,1.302 -1.82,-1.302 0,-1.093 -1.108,0 -1.215,-1.82 1.215,-1.82 1.108,0 0,-1.884 c -1.548,-0.122 -2.875,-0.38 -3.619,-0.548 -0.14,0.509 -0.257,0.94 -0.402,1.461 0.297,0.079 0.918,0.25 0.918,0.25 l 0.618,1.817 -1.46,1.242 c 0,0 -0.622,-0.171 -0.913,-0.25 -0.08,0.289 -0.254,0.919 -0.254,0.919 l -1.805,0.6 -1.252,-1.44 c 0,0 0.172,-0.627 0.251,-0.919 -0.294,-0.085 -0.918,-0.253 -0.918,-0.253 l -0.599,-1.808 1.438,-1.25 c 0,0 0.624,0.17 0.918,0.252 0.15,-0.563 0.297,-1.111 0.435,-1.622 -1.218,-0.523 -2.227,-1.169 -2.827,-1.595 -0.173,0.292 -0.223,0.377 -0.386,0.648 0.202,0.128 0.691,0.442 0.691,0.442 l 0.094,1.762 -1.573,0.873 c 0,0 -0.551,-0.328 -0.781,-0.468 -0.137,0.231 -0.456,0.761 -0.456,0.761 l -1.841,0.085 -0.786,-1.662 4.959,-8.421 c 0.194,-0.387 0.532,-0.743 0.991,-1.072 -0.462,0.131 -0.945,0.216 -1.449,0.247 -2.828,0.182 -5.403,-0.609 -7.255,-2.228 -1.835,-1.61 -2.904,-3.954 -3.089,-6.784 -0.015,-0.265 -0.026,-0.53 -0.026,-0.792 0,-2.16 0.556,-4.163 1.057,-5.953 0.397,-1.424 0.743,-2.672 0.743,-3.728 0,-0.097 0,-0.198 -0.008,-0.289 -0.056,-0.88 -0.219,-1.348 -0.333,-1.577 -2.346,-0.012 -3.304,-1.695 -3.401,-3.192 -0.009,-0.061 -0.009,-0.128 -0.009,-0.189 0,-1.366 1.005,-2.526 2.439,-2.922 -1.029,-0.453 -1.835,-1.202 -2.397,-2.203 l -4.092,0 -3.843,-3.845 3.408,-3.408 c -0.14,-2.42 -0.558,-4.142 -1.354,-5.764 -0.895,-1.827 -0.964,-4.149 -0.964,-4.816 0,-1.661 0.457,-5.88 4.669,-9.249 1.952,-1.561 3.597,-1.908 5.186,-2.243 1.105,-0.237 2.151,-0.457 3.365,-1.065 2.672,-1.333 3.605,-2.55 4.356,-3.525 l 0.146,-0.182 c 4.659,-6.014 10.81,-6.66 13.23,-6.66 2.418,0 8.569,0.646 13.23,6.66 l 0.143,0.182 c 0.749,0.975 1.682,2.192 4.357,3.525 1.214,0.608 2.257,0.828 3.365,1.065 1.588,0.335 3.233,0.682 5.187,2.243 4.213,3.369 4.668,7.588 4.668,9.249 0,0.667 -0.068,2.989 -0.964,4.816 -0.796,1.622 -1.213,3.344 -1.357,5.764 l 3.41,3.408 -3.845,3.845 z m -30.512,-21.521 -1.269,0 c 0,-1.37 -0.819,-2.554 -1.992,-3.095 0.303,-0.348 0.607,-0.664 0.917,-0.953 1.401,0.812 2.344,2.322 2.344,4.048 m -1.83,-4.495 c 0.025,-0.025 0.048,-0.046 0.074,-0.065 0.399,-0.316 0.79,-0.581 1.179,-0.797 1.484,0.785 2.496,2.341 2.496,4.136 l -1.269,0 c 0,-1.561 -1.052,-2.873 -2.48,-3.274 m -2.235,27.9 0,-1.06 -1.057,0 c 0,0 -0.471,-0.471 -0.747,-0.745 -0.277,0.274 -0.748,0.745 -0.748,0.745 l -1.054,0 0,1.06 c 0,0 -0.469,0.471 -0.75,0.745 0.281,0.28 0.75,0.749 0.75,0.749 l 0,1.056 1.054,0 c 0,0 0.471,0.469 0.748,0.746 0.276,-0.277 0.747,-0.746 0.747,-0.746 l 1.057,0 0,-1.056 c 0,0 0.47,-0.469 0.746,-0.749 C -5.31,9.721 -5.78,9.25 -5.78,9.25 m 1.294,3.837 -1.817,0 c -0.251,0.253 -1.279,1.282 -1.279,1.282 0,0 -1.034,-1.029 -1.281,-1.282 l -1.815,0 0,-1.811 c -0.251,-0.252 -1.283,-1.281 -1.283,-1.281 0,0 1.032,-1.032 1.283,-1.281 l 0,-1.814 1.815,0 c 0.247,-0.25 1.281,-1.281 1.281,-1.281 0,0 1.028,1.031 1.279,1.281 l 1.817,0 0,1.814 c 0.25,0.249 1.277,1.281 1.277,1.281 0,0 -1.027,1.029 -1.277,1.281 l 0,1.811 z m 5.539,13.91 -1.012,0 0,1.126 -0.747,0 0,-3.09 0.747,0 0,1.321 1.012,0 0,-1.321 0.747,0 0,3.09 -0.747,0 0,-1.126 z m 3.091,-0.348 c -0.099,0.08 -0.186,0.15 -0.402,0.202 L 3.223,26.972 C 3.074,27.006 3.03,27.036 2.984,27.066 l -0.038,0.025 c -0.076,0.033 -0.109,0.097 -0.109,0.177 0,0.094 0.036,0.161 0.115,0.215 0.084,0.052 0.206,0.082 0.354,0.082 0.243,0 0.497,-0.143 0.63,-0.273 l 0.06,-0.058 0.341,0.581 -0.048,0.039 c -0.221,0.165 -0.562,0.357 -0.941,0.357 -0.396,0 -0.699,-0.091 -0.904,-0.28 -0.207,-0.186 -0.313,-0.423 -0.313,-0.706 0,-0.317 0.109,-0.545 0.328,-0.697 0.134,-0.091 0.259,-0.168 0.574,-0.235 l 0.318,-0.069 c 0.142,-0.031 0.187,-0.058 0.244,-0.101 l 0.048,-0.034 c 0.064,-0.039 0.099,-0.091 0.099,-0.17 0,-0.137 -0.072,-0.225 -0.219,-0.277 -0.088,-0.027 -0.202,-0.049 -0.341,-0.049 -0.271,0 -0.592,0.189 -0.683,0.289 L 2.442,25.958 2.103,25.374 2.149,25.338 c 0.216,-0.171 0.577,-0.378 1.055,-0.378 0.394,0 0.704,0.098 0.925,0.287 0.224,0.188 0.333,0.432 0.333,0.721 0,0.283 -0.094,0.502 -0.283,0.654 l -0.035,0.027 z m -6.22,-1.616 0.749,0 0,3.089 -0.749,0 0,-3.089 z m 2.254,3.3 0.746,0 0,1.287 0.65,0 0,0.642 -0.65,0 0,0.648 -0.746,0 0,-0.648 -0.65,0 0,-0.642 0.65,0 0,-1.287 z"
             style="fill:#1a1a1a;fill-opacity:1;fill-rule:nonzero;stroke:none"
             id="path46"
             inkscape:connector-curvature="0" /></g><g
           id="g48"
           transform="translate(148.9937,436.4263)"><path
             d="M 0,0 1.265,-0.487 1.47,0.052 0.204,0.53 C 0.049,0.59 -0.02,0.642 -0.047,0.672 -0.123,0.751 -0.134,0.855 -0.081,0.992 -0.024,1.135 0.052,1.205 0.154,1.214 0.219,1.217 0.315,1.196 0.443,1.15 L 1.706,0.667 1.915,1.205 0.647,1.689 C 0.428,1.774 0.242,1.805 0.09,1.78 -0.191,1.738 -0.408,1.531 -0.543,1.175 -0.68,0.81 -0.657,0.514 -0.475,0.295 -0.375,0.18 -0.217,0.082 0,0 m -1.287,-6.264 c 0.088,0.013 0.323,0.058 0.406,0.074 0.023,-0.11 0.196,-1.002 0.196,-1.002 l 0.48,0.101 c 0,0 -0.17,0.885 -0.193,0.995 0.074,0.012 0.234,0.049 0.315,0.06 0.021,-0.109 0.211,-1.086 0.211,-1.086 l 0.485,0.094 -0.318,1.635 -0.062,-0.016 -2.118,-0.41 0.325,-1.683 0.497,0.094 c 0,0 -0.2,1.029 -0.224,1.144 m 8.86,-6.449 c 0.222,-0.067 0.4,-0.295 0.4,-0.295 l 0.319,0.35 c 0,0 -0.284,0.325 -0.583,0.417 -0.271,0.082 -0.501,0.039 -0.675,-0.058 -0.178,-0.1 -0.289,-0.256 -0.335,-0.453 -0.049,-0.22 -0.006,-0.405 0.125,-0.545 0.077,-0.085 0.156,-0.159 0.365,-0.256 l 0.208,-0.097 c 0.087,-0.04 0.115,-0.067 0.15,-0.1 l 0.026,-0.031 c 0.037,-0.031 0.048,-0.067 0.037,-0.116 -0.019,-0.088 -0.072,-0.137 -0.179,-0.146 -0.061,-0.003 -0.14,0 -0.234,0.024 -0.183,0.034 -0.486,0.344 -0.486,0.344 l -0.337,-0.371 c 0,0 0.398,-0.377 0.731,-0.448 0.277,-0.063 0.512,-0.045 0.694,0.052 0.189,0.101 0.308,0.256 0.353,0.457 0.041,0.204 0.008,0.377 -0.106,0.514 l -0.015,0.018 c -0.058,0.074 -0.107,0.138 -0.255,0.207 l -0.338,0.165 -0.147,0.097 -0.023,0.022 c -0.041,0.039 -0.052,0.076 -0.041,0.128 0.011,0.057 0.041,0.097 0.099,0.112 0.069,0.027 0.152,0.039 0.247,0.009 m -2.341,-0.304 c 0.057,0.094 0.208,0.316 0.318,0.487 0.011,-0.201 0.025,-0.472 0.028,-0.579 -0.097,0.028 -0.25,0.067 -0.346,0.092 m 0.239,1.29 -0.026,-0.039 -1.324,-1.905 0.577,-0.156 c 0,0 0.212,0.323 0.254,0.384 0.071,-0.022 0.572,-0.159 0.648,-0.177 0.004,-0.073 0.019,-0.457 0.019,-0.457 l 0.591,-0.158 -0.173,2.353 -0.566,0.155 z m -5.02,8.942 -2.204,0.332 -0.007,-0.058 -0.075,-0.493 2.202,-0.338 0.084,0.557 z m 0.211,0.636 c 0,0 -0.89,0.335 -1.205,0.447 0.348,0.065 1.462,0.244 1.462,0.244 l 0.195,0.523 -2.086,0.783 -0.023,-0.061 -0.168,-0.445 c 0,0 0.923,-0.343 1.238,-0.456 -0.349,-0.064 -1.499,-0.253 -1.499,-0.253 l -0.189,-0.505 2.091,-0.776 0.184,0.499 z M 0.53,-7.843 c 0.046,-0.089 0.196,-0.371 0.196,-0.371 0.04,-0.071 0.055,-0.122 0.055,-0.159 l 0,-0.009 c 0,-0.07 -0.046,-0.121 -0.137,-0.177 -0.114,-0.051 -0.17,-0.03 -0.206,-0.003 -0.022,0.021 -0.059,0.059 -0.109,0.149 0,0 -0.129,0.244 -0.19,0.357 0.077,0.045 0.315,0.167 0.391,0.213 M 0.336,-9.21 c 0.034,0.049 0.046,0.116 0.049,0.183 0.081,-0.046 0.16,-0.076 0.247,-0.076 0.118,0 0.228,0.021 0.327,0.076 0.079,0.046 0.143,0.1 0.192,0.152 l 0.119,0.198 c 0.03,0.067 0.045,0.143 0.045,0.219 0,0.015 0,0.034 -0.003,0.045 -0.004,0.098 -0.042,0.207 -0.111,0.345 L 0.705,-7.131 0.644,-7.162 -1.268,-8.169 -1.01,-8.662 c 0,0 0.635,0.335 0.733,0.387 0.041,-0.086 0.166,-0.317 0.166,-0.317 0.046,-0.085 0.061,-0.143 0.061,-0.177 0,-0.015 -0.005,-0.021 -0.005,-0.03 -0.007,-0.021 -0.068,-0.085 -0.173,-0.152 -0.106,-0.061 -0.463,-0.311 -0.463,-0.311 l 0.28,-0.523 c 0,0 0.115,0.137 0.183,0.189 0.067,0.049 0.155,0.091 0.155,0.091 l 0.125,0.067 c 0.144,0.079 0.236,0.149 0.284,0.228 m 1.411,-1.415 -0.004,0.021 c -0.003,0.098 -0.007,0.18 -0.09,0.323 l -0.183,0.328 -0.064,0.159 -0.009,0.03 c -0.01,0.055 0,0.092 0.04,0.131 0.042,0.037 0.091,0.055 0.147,0.037 0.069,-0.012 0.144,-0.058 0.209,-0.137 0.14,-0.18 0.16,-0.469 0.16,-0.469 l 0.458,0.107 c 0,0 -0.046,0.431 -0.239,0.675 C 1.999,-9.201 1.781,-9.103 1.584,-9.082 1.38,-9.064 1.201,-9.125 1.053,-9.262 0.887,-9.417 0.814,-9.587 0.845,-9.785 0.86,-9.901 0.878,-9.998 0.997,-10.202 l 0.117,-0.195 c 0.051,-0.085 0.052,-0.124 0.061,-0.167 l 0.008,-0.043 c 0.007,-0.049 -0.005,-0.088 -0.038,-0.119 -0.064,-0.061 -0.137,-0.066 -0.232,-0.015 -0.053,0.028 -0.114,0.079 -0.178,0.153 -0.126,0.136 -0.201,0.559 -0.201,0.559 l -0.49,-0.112 c 0,0 0.11,-0.539 0.346,-0.788 0.189,-0.207 0.394,-0.326 0.598,-0.35 0.213,-0.025 0.395,0.033 0.551,0.173 0.152,0.14 0.223,0.301 0.208,0.481 m 2.992,-1.443 0.25,0.426 -1.574,0.929 -0.03,-0.058 -0.219,-0.372 c 0,0 0.455,-0.267 0.542,-0.319 -0.062,-0.101 -0.876,-1.492 -0.876,-1.492 l 0.484,-0.292 c 0,0 0.82,1.394 0.881,1.498 0.087,-0.055 0.542,-0.32 0.542,-0.32 m -1.911,1.881 -0.038,-0.045 -1.346,-1.699 0.445,-0.353 1.383,1.75 -0.444,0.347 z M 0.28,-4.782 c 0,0 -1.085,0.323 -1.407,0.421 0.322,0.082 1.428,0.395 1.428,0.395 l 0.051,0.612 -2.275,-0.743 -0.005,-0.508 2.219,-0.773 -0.011,0.596 z"
             style="fill:#1a1a1a;fill-opacity:1;fill-rule:nonzero;stroke:none"
             id="path50"
             inkscape:connector-curvature="0" /></g><g
           id="g52"
           transform="translate(185.9653,416.2539)"><path
             d="M 0,0 -0.026,0 C -0.122,0 -0.201,0 -0.35,-0.073 l -0.341,-0.164 -0.163,-0.055 -0.033,-0.007 c -0.053,-0.006 -0.092,0.007 -0.125,0.049 -0.035,0.043 -0.046,0.092 -0.028,0.146 0.019,0.067 0.064,0.14 0.148,0.195 0.19,0.134 0.478,0.134 0.478,0.134 l -0.075,0.468 c 0,0 -0.433,-0.017 -0.69,-0.2 -0.232,-0.158 -0.346,-0.372 -0.372,-0.566 -0.033,-0.201 0.019,-0.384 0.148,-0.542 0.145,-0.177 0.314,-0.262 0.505,-0.238 0.117,0.006 0.222,0.025 0.425,0.128 l 0.207,0.104 c 0.088,0.042 0.121,0.049 0.172,0.049 l 0.041,0.006 c 0.049,0.005 0.083,-0.006 0.114,-0.043 0.056,-0.073 0.056,-0.14 0.003,-0.232 -0.034,-0.055 -0.087,-0.109 -0.163,-0.17 -0.143,-0.115 -0.568,-0.164 -0.568,-0.164 l 0.08,-0.499 c 0,0 0.541,0.079 0.808,0.304 0.219,0.177 0.346,0.365 0.386,0.572 0.034,0.213 -0.012,0.396 -0.145,0.561 C 0.335,-0.079 0.173,0 0,0 m -2.204,-1.875 -0.025,0.006 c -0.092,0.018 -0.172,0.03 -0.331,-0.019 l -0.36,-0.103 -0.174,-0.024 -0.03,0 c -0.058,0 -0.091,0.018 -0.117,0.067 -0.028,0.054 -0.031,0.103 0,0.152 0.03,0.061 0.085,0.128 0.178,0.17 0.211,0.098 0.493,0.049 0.493,0.049 l 0.003,0.474 c 0,0 -0.428,0.049 -0.714,-0.078 -0.253,-0.122 -0.4,-0.31 -0.463,-0.5 -0.064,-0.194 -0.048,-0.377 0.054,-0.559 0.114,-0.196 0.266,-0.305 0.459,-0.323 0.117,-0.012 0.221,-0.012 0.44,0.055 l 0.221,0.067 c 0.09,0.03 0.132,0.03 0.178,0.024 l 0.041,0 c 0.049,0 0.083,-0.024 0.102,-0.066 0.045,-0.08 0.038,-0.147 -0.034,-0.226 C -2.321,-2.758 -2.386,-2.8 -2.468,-2.849 -2.631,-2.946 -3.06,-2.922 -3.06,-2.922 l -0.008,-0.499 c 0,0 0.551,-0.018 0.846,0.158 0.25,0.14 0.409,0.304 0.481,0.499 0.073,0.201 0.058,0.396 -0.046,0.578 -0.102,0.183 -0.241,0.287 -0.417,0.311 m -16.039,1.028 0.476,0.11 c 0,0 -0.056,0.487 -0.42,0.761 -0.219,0.164 -0.462,0.231 -0.716,0.195 -0.29,-0.042 -0.553,-0.219 -0.786,-0.524 -0.211,-0.274 -0.31,-0.553 -0.292,-0.828 0.019,-0.267 0.142,-0.499 0.406,-0.7 0.425,-0.316 0.88,-0.176 0.88,-0.176 l -0.14,0.475 c -0.142,-0.043 -0.292,0.006 -0.437,0.109 -0.102,0.079 -0.152,0.183 -0.155,0.311 -0.003,0.134 0.061,0.292 0.193,0.463 0.134,0.175 0.27,0.286 0.406,0.328 0.128,0.049 0.243,0.024 0.354,-0.061 0.188,-0.139 0.203,-0.298 0.231,-0.463 m 1.414,-1.533 c -0.11,-0.189 -0.239,-0.31 -0.376,-0.365 -0.132,-0.055 -0.265,-0.043 -0.399,0.03 -0.131,0.085 -0.207,0.189 -0.229,0.328 -0.023,0.153 0.018,0.324 0.129,0.512 0.112,0.188 0.237,0.316 0.379,0.371 0.132,0.055 0.264,0.036 0.401,-0.036 0.132,-0.079 0.206,-0.183 0.227,-0.323 0.023,-0.152 -0.021,-0.323 -0.132,-0.517 m 0.694,0.401 c 0,0.091 -0.015,0.189 -0.046,0.281 -0.056,0.23 -0.224,0.431 -0.501,0.59 -0.272,0.152 -0.529,0.201 -0.765,0.133 -0.292,-0.06 -0.543,-0.267 -0.744,-0.614 -0.197,-0.341 -0.25,-0.664 -0.163,-0.962 0.062,-0.231 0.227,-0.432 0.5,-0.591 0.274,-0.158 0.532,-0.2 0.763,-0.133 l 0.005,0 c 0.299,0.067 0.547,0.28 0.742,0.615 0.14,0.243 0.209,0.469 0.209,0.681 m 1.285,-0.956 c -0.042,-0.121 -0.102,-0.139 -0.144,-0.139 -0.03,-0.006 -0.087,0 -0.183,0.03 0,0 -0.261,0.098 -0.382,0.141 0.031,0.078 0.121,0.334 0.153,0.42 0.089,-0.038 0.394,-0.147 0.394,-0.147 0.09,-0.03 0.132,-0.06 0.15,-0.085 0.023,-0.024 0.035,-0.061 0.035,-0.103 0,-0.031 -0.004,-0.074 -0.023,-0.117 m 0.558,-0.133 c 0.03,0.085 0.042,0.171 0.042,0.243 l -0.045,0.22 c -0.028,0.079 -0.064,0.139 -0.115,0.201 -0.012,0.011 -0.027,0.017 -0.038,0.036 -0.064,0.06 -0.167,0.115 -0.31,0.17 l -1.001,0.359 -0.025,-0.055 -0.73,-2.044 0.523,-0.183 c 0,0 0.242,0.669 0.276,0.779 0.092,-0.03 0.345,-0.128 0.345,-0.128 0.091,-0.03 0.137,-0.06 0.162,-0.092 0.005,-0.005 0.01,-0.017 0.013,-0.024 0.012,-0.024 0.007,-0.109 -0.027,-0.225 -0.034,-0.116 -0.128,-0.547 -0.128,-0.547 l 0.561,-0.196 c 0,0 -0.01,0.177 0.003,0.262 0.02,0.092 0.054,0.177 0.054,0.177 l 0.048,0.134 c 0.054,0.152 0.074,0.267 0.058,0.359 -0.01,0.06 -0.05,0.115 -0.088,0.17 0.088,0.013 0.168,0.049 0.231,0.11 0.088,0.079 0.152,0.17 0.191,0.274 m 5.855,-1.796 C -8.479,-4.882 -8.54,-4.9 -8.619,-4.906 c 0,0 -0.349,-0.031 -0.448,-0.037 -0.007,0.086 -0.03,0.347 -0.038,0.432 0.099,0.012 0.455,0.043 0.455,0.043 0.081,0 0.14,0 0.186,-0.018 0.068,-0.019 0.103,-0.074 0.11,-0.159 l 0,-0.037 c 0,-0.115 -0.046,-0.158 -0.083,-0.182 m -0.739,1.169 c 0.094,0.006 0.389,0.03 0.389,0.03 0.092,0.007 0.168,0.007 0.224,-0.006 0.03,-0.012 0.078,-0.036 0.079,-0.134 0.005,-0.006 0.005,-0.018 0.005,-0.024 0,-0.079 -0.034,-0.104 -0.046,-0.115 -0.042,-0.032 -0.102,-0.049 -0.181,-0.055 0,0 -0.308,-0.031 -0.44,-0.043 -0.009,0.079 -0.024,0.262 -0.03,0.347 m 1.266,-0.597 c -0.05,0.067 -0.114,0.109 -0.191,0.146 0.026,0.025 0.066,0.049 0.084,0.074 0.054,0.085 0.084,0.182 0.084,0.292 0,0.024 -0.005,0.049 -0.005,0.073 -0.01,0.134 -0.056,0.249 -0.138,0.341 l 0,0.006 c -0.134,0.146 -0.34,0.213 -0.612,0.195 l -1.073,-0.092 0.194,-2.222 1.004,0.085 0.304,0.061 c 0.099,0.024 0.183,0.073 0.255,0.135 0.056,0.054 0.106,0.121 0.143,0.2 0.048,0.092 0.075,0.195 0.075,0.31 0,0.019 -0.003,0.043 -0.003,0.062 -0.012,0.134 -0.053,0.243 -0.121,0.334 m -4.922,0.341 c -0.032,-0.152 -0.08,-0.268 -0.141,-0.359 -0.105,-0.165 -0.242,-0.225 -0.416,-0.189 0,0 -0.245,0.049 -0.33,0.067 0.021,0.11 0.238,1.126 0.262,1.23 0.085,-0.019 0.33,-0.067 0.33,-0.067 0.169,-0.037 0.268,-0.103 0.301,-0.213 0.02,-0.055 0.028,-0.116 0.028,-0.189 0,-0.085 -0.012,-0.177 -0.034,-0.28 m 0.2,1.022 c -0.084,0.049 -0.189,0.086 -0.321,0.116 l -0.948,0.202 -0.013,-0.062 -0.45,-2.118 0.944,-0.2 c 0.333,-0.068 0.61,0.012 0.83,0.255 0.155,0.176 0.267,0.408 0.326,0.694 0.024,0.109 0.035,0.231 0.035,0.359 0,0.134 -0.03,0.262 -0.079,0.389 -0.068,0.159 -0.177,0.28 -0.324,0.365 m 1.888,-1.649 c -0.01,-0.134 -0.033,-0.225 -0.07,-0.279 -0.05,-0.092 -0.149,-0.128 -0.296,-0.122 -0.153,0.018 -0.24,0.073 -0.274,0.169 -0.019,0.043 -0.037,0.128 -0.019,0.293 l 0.117,1.352 -0.572,0.048 -0.004,-0.061 -0.115,-1.29 c -0.021,-0.231 0,-0.414 0.063,-0.56 0.12,-0.262 0.376,-0.409 0.761,-0.445 0.383,-0.03 0.66,0.074 0.82,0.305 0.087,0.128 0.14,0.316 0.163,0.542 l 0.117,1.351 -0.572,0.048 -0.119,-1.351 z m 6.477,2.715 -0.431,-0.189 c 0,0 0.367,-0.877 0.496,-1.186 -0.281,0.213 -1.174,0.906 -1.174,0.906 l -0.52,-0.219 0.86,-2.052 0.494,0.207 c 0,0 -0.381,0.908 -0.509,1.218 0.28,-0.218 1.207,-0.925 1.207,-0.925 l 0.496,0.207 -0.858,2.051 -0.061,-0.018 z m -2.529,-2.721 c -0.018,0.079 -0.072,0.316 -0.09,0.401 0.11,0.026 0.99,0.226 0.99,0.226 l -0.107,0.475 c 0,0 -0.883,-0.195 -0.993,-0.225 -0.015,0.079 -0.053,0.237 -0.073,0.311 0.11,0.024 1.081,0.249 1.081,0.249 l -0.11,0.487 -0.064,-0.019 -1.555,-0.359 0.493,-2.167 1.673,0.384 -0.115,0.499 c 0,0 -1.016,-0.238 -1.13,-0.262 m 4.775,4.2 -0.411,-0.28 1.279,-1.826 0.462,0.323 -1.277,1.826 -0.053,-0.043 z"
             style="fill:#1a1a1a;fill-opacity:1;fill-rule:nonzero;stroke:none"
             id="path54"
             inkscape:connector-curvature="0" /></g><g
           id="g56"
           transform="translate(202.0654,425.8013)"><path
             d="m 0,0 c 0.031,-0.149 -0.044,-0.295 -0.158,-0.426 -0.092,-0.092 -0.198,-0.131 -0.326,-0.116 -0.137,0.012 -0.284,0.098 -0.439,0.25 -0.157,0.155 -0.252,0.301 -0.279,0.441 -0.026,0.137 0.009,0.244 0.103,0.344 0.163,0.174 0.323,0.164 0.489,0.174 l -0.049,0.49 c 0,0 -0.493,0.003 -0.808,-0.332 -0.193,-0.198 -0.287,-0.426 -0.28,-0.682 0.005,-0.298 0.148,-0.575 0.42,-0.843 0.256,-0.25 0.519,-0.381 0.79,-0.393 0.275,-0.012 0.516,0.079 0.745,0.317 0.366,0.383 0.285,0.849 0.285,0.849 L 0,0 z m -2.168,0 -0.057,-0.031 -0.44,-0.261 0.687,-1.166 c 0.064,-0.119 0.102,-0.207 0.105,-0.274 0.012,-0.101 -0.046,-0.188 -0.173,-0.265 -0.133,-0.076 -0.236,-0.082 -0.32,-0.024 -0.056,0.037 -0.12,0.113 -0.184,0.229 l -0.683,1.171 -0.496,-0.292 0.681,-1.166 c 0.117,-0.207 0.242,-0.347 0.376,-0.426 0.247,-0.14 0.542,-0.116 0.877,0.079 0.328,0.195 0.494,0.435 0.493,0.724 -0.005,0.153 -0.066,0.335 -0.183,0.533 L -2.168,0 z m -1.808,-0.983 -0.063,-0.021 -1.672,-0.551 0.157,-0.472 c 0,0 0.499,0.164 0.598,0.198 0.038,-0.113 0.543,-1.644 0.543,-1.644 l 0.536,0.177 c 0,0 -0.507,1.525 -0.543,1.64 0.098,0.033 0.598,0.198 0.598,0.198 l -0.154,0.475 z M 1.301,2.273 0.149,2.983 0.114,2.925 -0.153,2.496 1.001,1.78 C 1.116,1.71 1.192,1.653 1.222,1.598 1.283,1.509 1.272,1.403 1.192,1.275 1.116,1.147 1.027,1.089 0.927,1.105 0.877,1.105 0.793,1.129 0.653,1.217 L -0.499,1.933 -0.803,1.439 0.35,0.73 C 0.551,0.609 0.729,0.545 0.881,0.536 1.165,0.53 1.416,0.691 1.616,1.017 1.817,1.345 1.851,1.637 1.715,1.887 1.639,2.024 1.499,2.152 1.301,2.273 m 0.785,4.091 0,-0.359 C 1.984,6.035 1.726,6.118 1.533,6.188 1.726,6.249 1.984,6.333 2.086,6.364 M 0.782,5.898 3.009,5.104 l 0,0.6 c 0,0 -0.365,0.115 -0.437,0.139 l 0,0.673 c 0.072,0.025 0.437,0.143 0.437,0.143 l 0,0.606 -0.084,-0.031 -2.143,-0.751 0,-0.585 z m -0.459,4.127 c -0.011,0.021 -0.015,0.037 -0.026,0.067 0.099,0.031 0.671,0.244 0.766,0.281 0.027,-0.074 0.086,-0.235 0.121,-0.335 -0.137,0 -0.785,-0.013 -0.861,-0.013 m 0.936,1.023 C 1.18,11.021 0.953,10.936 0.874,10.905 0.833,11.011 0.536,11.815 0.536,11.815 L 0.081,11.647 c 0,0 0.295,-0.806 0.333,-0.909 C 0.34,10.707 0.178,10.646 0.108,10.625 0.069,10.729 -0.265,11.632 -0.265,11.632 L -0.724,11.465 0,9.502 2.356,9.511 2.15,10.062 c 0,0 -0.389,-0.006 -0.467,-0.006 -0.021,0.061 -0.143,0.393 -0.178,0.481 0.093,0.033 0.419,0.152 0.419,0.152 L 1.347,12.247 1.291,12.226 0.884,12.077 c 0,0 0.338,-0.922 0.375,-1.029 M 0.44,8.303 c 0,0 0.933,0.197 1.26,0.264 C 1.437,8.333 0.588,7.582 0.588,7.582 L 0.707,7.037 2.887,7.49 2.777,8.014 c 0,0 -0.96,-0.198 -1.29,-0.265 0.263,0.234 1.134,1.01 1.134,1.01 L 2.511,9.289 2.447,9.274 0.331,8.826 0.44,8.303 z M 0.877,5.253 0.668,4.602 c 0,0 0.93,-0.545 1.262,-0.743 C 1.545,3.89 0.471,3.981 0.471,3.981 L 0.241,3.266 2.359,2.584 2.526,3.092 c 0,0 -0.853,0.274 -1.179,0.381 C 1.881,3.418 2.61,3.357 2.61,3.357 l 0.159,0.502 c 0,0 -0.634,0.371 -1.096,0.642 C 2.064,4.374 2.856,4.124 2.856,4.124 L 3.02,4.632 0.896,5.311 0.877,5.253 z"
             style="fill:#1a1a1a;fill-opacity:1;fill-rule:nonzero;stroke:none"
             id="path58"
             inkscape:connector-curvature="0" /></g><g
           id="g60"
           transform="translate(171.1797,465.7598)"><path
             d="m 0,0 c 0.03,-0.021 0.198,-0.128 0.198,-0.128 0.049,-0.039 0.076,-0.073 0.091,-0.112 0.003,-0.01 0.003,-0.019 0.003,-0.028 0,-0.036 -0.01,-0.073 -0.042,-0.109 -0.034,-0.055 -0.07,-0.085 -0.113,-0.095 -0.041,-0.006 -0.087,0.01 -0.14,0.046 0,0 -0.163,0.11 -0.193,0.131 C -0.175,-0.265 -0.023,-0.03 0,0 m -0.621,-0.94 c 0,0 0.247,0.377 0.268,0.408 0.03,-0.022 0.216,-0.14 0.216,-0.14 0.13,-0.086 0.247,-0.125 0.356,-0.11 0.111,0.009 0.213,0.085 0.304,0.225 0.087,0.131 0.115,0.246 0.084,0.356 C 0.575,-0.094 0.505,0 0.387,0.076 L -0.117,0.411 -0.132,0.396 -0.895,-0.758 -0.621,-0.94 z M 0.77,-1.017 c 0.084,0.128 0.17,0.207 0.267,0.238 0.098,0.028 0.188,0.015 0.276,-0.049 C 1.398,-0.889 1.449,-0.961 1.457,-1.059 1.467,-1.163 1.429,-1.272 1.35,-1.4 1.266,-1.521 1.18,-1.601 1.082,-1.628 0.986,-1.659 0.895,-1.649 0.808,-1.589 0.717,-1.531 0.673,-1.455 0.659,-1.354 0.653,-1.251 0.687,-1.135 0.77,-1.017 M 0.356,-1.434 c 0.031,-0.151 0.129,-0.279 0.292,-0.392 0.168,-0.107 0.331,-0.149 0.478,-0.115 0.189,0.03 0.356,0.151 0.493,0.365 0.107,0.158 0.16,0.31 0.16,0.453 0,0.049 -0.008,0.098 -0.02,0.146 -0.026,0.146 -0.125,0.28 -0.292,0.387 -0.166,0.112 -0.325,0.152 -0.478,0.118 -0.184,-0.03 -0.351,-0.149 -0.493,-0.362 -0.135,-0.21 -0.181,-0.411 -0.14,-0.6 M -1.429,0.938 C -1.456,0.904 -2.047,0.009 -2.047,0.009 l 0.277,-0.185 c 0,0 0.592,0.894 0.614,0.931 0.033,-0.025 0.341,-0.222 0.341,-0.222 L -0.656,0.767 -1.616,1.403 -1.627,1.382 -1.77,1.163 c 0,0 0.306,-0.204 0.341,-0.225 M 2.275,-1.509 C 2.332,-1.546 2.511,-1.659 2.511,-1.659 2.572,-1.698 2.595,-1.729 2.603,-1.75 2.613,-1.774 2.618,-1.795 2.61,-1.826 2.605,-1.847 2.59,-1.878 2.572,-1.905 2.521,-1.978 2.478,-1.984 2.447,-1.978 c -0.023,0 -0.062,0.015 -0.122,0.052 0,0 -0.157,0.1 -0.231,0.152 0.038,0.054 0.143,0.213 0.181,0.265 m -0.63,-0.932 c 0,0 0.26,0.387 0.297,0.439 0.049,-0.031 0.226,-0.146 0.226,-0.146 0.051,-0.034 0.074,-0.061 0.084,-0.082 L 2.261,-2.243 C 2.265,-2.261 2.242,-2.328 2.204,-2.392 2.166,-2.459 2.044,-2.706 2.044,-2.706 l 0.297,-0.197 c 0,0 0.018,0.109 0.041,0.158 0.022,0.052 0.101,0.182 0.101,0.182 0.054,0.085 0.074,0.153 0.08,0.213 0,0.037 -0.017,0.082 -0.034,0.12 0.058,0 0.133,0 0.183,0.023 0.064,0.037 0.117,0.086 0.155,0.144 0.13,0.185 0.05,0.38 0.03,0.417 -0.007,0.012 -0.01,0.018 -0.019,0.03 -0.029,0.046 -0.105,0.107 -0.186,0.161 l -0.54,0.359 -0.779,-1.162 0.272,-0.183 z m -4.909,3.488 c -0.012,-0.173 0.087,-0.335 0.287,-0.469 0.206,-0.134 0.389,-0.161 0.547,-0.076 0.083,0.04 0.167,0.125 0.251,0.25 L -1.71,1.467 -1.986,1.646 -2.46,0.935 C -2.509,0.858 -2.552,0.81 -2.593,0.789 -2.657,0.749 -2.73,0.758 -2.821,0.816 -2.908,0.874 -2.946,0.94 -2.934,1.008 -2.931,1.056 -2.9,1.114 -2.85,1.193 L -2.377,1.905 -2.657,2.094 -2.669,2.07 -3.129,1.379 C -3.211,1.251 -3.258,1.145 -3.264,1.047 M 8.525,-6.994 9.044,-6.203 C 8.945,-6.471 8.699,-7.109 8.699,-7.109 L 8.96,-7.283 c 0,0 0.502,0.481 0.707,0.673 l -0.524,-0.792 0.254,-0.17 0.778,1.172 -0.376,0.246 c 0,0 -0.613,-0.587 -0.735,-0.703 0.056,0.158 0.356,0.956 0.356,0.956 L 9.04,-5.652 9.029,-5.673 8.268,-6.82 8.525,-6.994 z m 2.354,-1.561 c 0,0 0.422,0.639 0.502,0.761 -0.013,-0.149 -0.068,-1.044 -0.068,-1.044 l 0.265,-0.18 0.776,1.175 -0.257,0.167 c 0,0 -0.409,-0.615 -0.489,-0.733 0.011,0.143 0.069,1.016 0.069,1.016 l -0.277,0.18 -0.017,-0.018 -0.761,-1.154 0.257,-0.17 z m -0.4,0.267 0.158,0.244 c 0,0 -0.587,0.39 -0.622,0.417 0.02,0.027 0.144,0.219 0.163,0.247 0.039,-0.022 0.549,-0.363 0.549,-0.363 l 0.157,0.235 c 0,0 -0.513,0.344 -0.551,0.365 0.02,0.03 0.119,0.17 0.137,0.201 0.035,-0.028 0.596,-0.399 0.596,-0.399 l 0.159,0.243 -0.869,0.573 -0.011,-0.018 -0.762,-1.154 0.896,-0.591 z m -6.11,4.045 0.16,0.238 c 0,0 -0.589,0.396 -0.626,0.42 0.019,0.03 0.148,0.219 0.166,0.25 0.038,-0.022 0.55,-0.366 0.55,-0.366 l 0.156,0.238 c 0,0 -0.515,0.338 -0.55,0.362 0.019,0.03 0.114,0.173 0.132,0.204 0.039,-0.025 0.6,-0.399 0.6,-0.399 L 5.116,-3.056 4.248,-2.478 4.235,-2.505 3.474,-3.649 4.369,-4.243 z M 2.754,-3.174 3.03,-3.357 c 0,0 0.592,0.898 0.613,0.931 0.035,-0.024 0.344,-0.225 0.344,-0.225 L 4.146,-2.41 3.19,-1.777 3.174,-1.795 3.03,-2.015 c 0,0 0.307,-0.204 0.341,-0.228 C 3.348,-2.279 2.754,-3.174 2.754,-3.174 M 6.167,-5.43 c 0,0 0.421,0.63 0.496,0.752 C 6.656,-4.824 6.599,-5.716 6.599,-5.716 l 0.264,-0.176 0.775,1.168 -0.254,0.171 c 0,0 -0.411,-0.618 -0.49,-0.739 0.009,0.148 0.064,1.016 0.064,1.016 L 6.685,-4.093 6.671,-4.112 5.908,-5.262 6.167,-5.43 z m 1.766,0.082 C 8.027,-5.317 8.12,-5.329 8.21,-5.39 8.298,-5.454 8.347,-5.527 8.354,-5.627 8.367,-5.725 8.327,-5.84 8.245,-5.962 8.161,-6.087 8.073,-6.166 7.979,-6.196 7.88,-6.227 7.793,-6.208 7.707,-6.154 c -0.092,0.061 -0.142,0.137 -0.148,0.24 -0.013,0.098 0.025,0.21 0.105,0.332 0.084,0.125 0.175,0.204 0.269,0.234 M 7.396,-5.399 c -0.142,-0.207 -0.188,-0.411 -0.142,-0.6 0.028,-0.149 0.127,-0.28 0.292,-0.392 0.166,-0.11 0.328,-0.146 0.475,-0.113 0.194,0.03 0.356,0.152 0.497,0.359 0.106,0.162 0.155,0.314 0.155,0.46 0,0.048 -0.004,0.097 -0.016,0.14 C 8.63,-5.396 8.53,-5.262 8.367,-5.152 8.199,-5.043 8.04,-5.003 7.889,-5.034 7.702,-5.064 7.534,-5.189 7.396,-5.399 M 5.378,-3.573 C 5.355,-3.609 4.763,-4.504 4.763,-4.504 l 0.274,-0.183 c 0,0 0.59,0.895 0.618,0.935 0.033,-0.025 0.341,-0.229 0.341,-0.229 l 0.158,0.244 -0.959,0.63 -0.01,-0.018 -0.148,-0.22 c 0,0 0.306,-0.204 0.341,-0.228 m 7.072,-6.02 0.523,0.788 c -0.099,-0.264 -0.345,-0.904 -0.345,-0.904 l 0.262,-0.173 c 0,0 0.496,0.475 0.706,0.673 -0.005,-0.007 -0.524,-0.795 -0.524,-0.795 l 0.254,-0.167 0.773,1.171 -0.371,0.25 c 0,0 -0.62,-0.59 -0.737,-0.703 0.058,0.155 0.354,0.95 0.354,0.95 l -0.375,0.252 -0.013,-0.024 -0.762,-1.148 0.255,-0.17 z m 1.957,-1.297 0.162,0.244 c 0,0 -0.591,0.393 -0.627,0.417 0.02,0.027 0.147,0.219 0.168,0.247 0.035,-0.022 0.546,-0.36 0.546,-0.36 l 0.156,0.232 c 0,0 -0.512,0.343 -0.55,0.365 0.02,0.03 0.114,0.173 0.137,0.201 0.035,-0.025 0.598,-0.399 0.598,-0.399 l 0.157,0.243 -0.869,0.573 -0.012,-0.019 -0.761,-1.147 0.895,-0.597 z m 1.535,-1.016 0.524,0.797 c -0.102,-0.271 -0.346,-0.91 -0.346,-0.91 l 0.262,-0.176 c 0,0 0.496,0.477 0.701,0.675 0,-0.002 -0.523,-0.794 -0.523,-0.794 l 0.259,-0.167 0.773,1.165 -0.371,0.253 c 0,0 -0.62,-0.59 -0.737,-0.7 0.058,0.152 0.353,0.95 0.353,0.95 l -0.375,0.249 -0.015,-0.021 -0.763,-1.147 0.258,-0.174 z m -1.22,1.05 c -0.015,-0.177 0.084,-0.338 0.287,-0.469 0.201,-0.134 0.384,-0.161 0.542,-0.082 0.084,0.049 0.167,0.131 0.251,0.25 l 0.473,0.718 -0.279,0.186 -0.471,-0.716 c -0.048,-0.073 -0.094,-0.128 -0.137,-0.149 -0.061,-0.039 -0.135,-0.03 -0.223,0.031 -0.092,0.057 -0.128,0.121 -0.113,0.197 0.003,0.046 0.029,0.107 0.079,0.177 l 0.473,0.718 -0.277,0.18 -0.015,-0.012 -0.458,-0.7 c -0.079,-0.125 -0.125,-0.235 -0.132,-0.329"
             style="fill:#1a1a1a;fill-opacity:1;fill-rule:nonzero;stroke:none"
             id="path62"
             inkscape:connector-curvature="0" /></g></g></g></g></svg>